<?xml version="1.0" encoding="UTF-8" standalone="no"?><!DOCTYPE svg PUBLIC "-//W3C//DTD SVG 1.1//EN" "http://www.w3.org/Graphics/SVG/1.1/DTD/svg11.dtd"><svg width="100%" height="100%" viewBox="0 0 2000 500" version="1.1" xmlns="http://www.w3.org/2000/svg" xmlns:xlink="http://www.w3.org/1999/xlink" xml:space="preserve" xmlns:serif="http://www.serif.com/" style="fill-rule:evenodd;clip-rule:evenodd;stroke-linejoin:round;stroke-miterlimit:2;"><path d="M210.061,16.938c5.232,2.567 10.548,6.236 15.609,9.283c43.63,26.269 84.185,62.905 96.427,114.286c1.549,6.498 2.602,13.306 2.811,19.908c14.578,-7.794 24.26,-14.304 36.868,-25.074c-3.58,-3.389 -8.222,-7.147 -12.016,-10.361l-21.627,-18.148c17.951,-4.272 35.802,-9.053 53.722,-13.43c7.276,-1.778 15.144,-3.961 22.417,-5.522c5.758,-1.771 13.663,-3.529 19.618,-5.039l41.097,-10.351l48.108,-12.407c-1.283,7.962 -2.683,15.906 -4.199,23.827c-1.986,11.226 -4.271,22.54 -6.372,33.762c-1.88,10.043 -3.577,20.665 -5.691,30.634l-12.61,68.627l-4.324,23.995c-0.783,4.367 -1.626,9.991 -2.643,14.23l-6.787,-6.56c-7.063,-6.977 -14.287,-15.01 -21.401,-21.694c-5.129,8.156 -6.796,12.237 -10.791,20.811c-3.227,8.906 -5.871,16.942 -7.549,26.317c-0.878,4.906 -1.201,9.55 -1.891,14.396c-0.744,13.132 0.219,24.885 -0.734,38.028c-1.948,26.882 -9.626,52.595 -24.073,75.449c-2.459,3.889 -6.666,10.407 -9.796,13.738c-0.998,1.933 -7.837,9.433 -9.59,11.469c-23.99,28.039 -57.172,46.628 -93.611,52.444c-44.086,6.69 -89.028,-4.346 -125,-30.696c12.313,-11.427 26.401,-23.382 39.077,-34.57l63.037,-55.753c2.297,-13.268 5.35,-30.531 8.347,-43.611c-16.627,5.699 -33.309,11.234 -50.044,16.606c-1.878,2.256 -5.722,8.308 -7.517,10.945l-15.519,22.825l-50.576,74.874c-24.088,-19.965 -42.312,-48.63 -51.144,-78.552c-13.355,-45.027 -7.432,-93.576 16.359,-134.07c3.817,-6.628 7.886,-12.208 12.317,-18.45l14.865,-20.875c10.064,-14.138 22.82,-30.82 28.347,-47.243c3.231,-9.602 2.976,-19.147 1.468,-29.022c4.693,3.476 9.876,9.055 13.441,13.62c13.196,16.895 15.322,33.835 18.669,53.939c6.131,-7.451 11.359,-15.6 15.576,-24.279c16.154,-33.36 11.544,-61.111 1.424,-95.132c-4.369,-14.497 -9.07,-28.893 -14.099,-43.174Zm191.289,106.909l68.159,-17.152l-9.092,46.473c-1.496,7.637 -3.066,16.937 -4.876,24.394c-4.378,-4.854 -9.077,-9.565 -13.558,-14.355c-26.811,28.987 -46.783,53.694 -55.725,93.199c-3.147,13.969 -4.465,28.288 -3.919,42.597c0.47,11.857 2.609,23.601 2.9,35.003c0.721,28.251 -10.748,56.253 -29.806,76.946c-21.323,23.531 -51.224,37.484 -82.955,38.709c-13.623,0.523 -22.297,-0.917 -35.385,-3.892c8.203,-3.537 17.618,-6.964 26.019,-10.258l49.516,-19.443c9.753,-3.795 20.481,-7.707 30.078,-11.709l25.978,-136.428l9.173,-48.433c1.408,-7.408 3.416,-16.411 4.524,-23.733l-215.629,71.347l-15.171,63.192c-2.462,10.062 -4.828,21.019 -7.566,30.903c-0.729,3.618 -1.891,7.805 -2.716,11.563c-2.147,-3.08 -3.779,-7.204 -5.211,-10.708c-7.014,-17.032 -10.351,-35.353 -9.793,-53.764c0.117,-3.318 0.368,-8.125 1.007,-11.361c0.23,-4.184 1.929,-11.738 2.892,-15.877c6.922,-29.766 23.757,-52.384 43.127,-75.306c0.541,3.297 1.27,6.59 1.957,9.862c1.808,10.111 3.759,20.196 5.852,30.252c9.67,-5.733 17.523,-9.95 26.67,-16.717c26.699,-19.752 46.548,-46.981 54.759,-79.364c3.901,-15.386 4.714,-27.331 4.113,-42.955c15.467,18.277 26.052,43.642 24.088,67.857c-1.252,15.435 -5.803,25.399 -13.377,38.294c43.491,-7.929 74.089,-21.556 108.333,-49.868c10.04,-8.29 19.601,-17.144 28.634,-26.52c-3.573,-4.415 -8.992,-8.598 -13,-12.748Zm-63.857,122.632l0.527,0.114c0.376,1.558 -22.937,119.699 -25.482,133.117c-4.304,1.96 -10.598,4.211 -15.14,5.994l-18.636,7.526c5.72,-5.906 14.962,-13.72 21.295,-19.321c0.853,-3.325 1.684,-8.868 2.321,-12.362l4.372,-24.132l12.942,-71.737l-22.017,7.473l-66.138,22.34c-9.016,2.989 -18.272,6.197 -27.339,8.936c-6.105,8.947 -12.282,17.844 -18.531,26.691c2.012,-7.855 3.933,-15.734 5.762,-23.634c1.017,-4.252 2.461,-9.34 3.243,-13.556c4.526,-1.745 10.764,-3.6 15.487,-5.154l28.878,-9.542c32.875,-10.75 65.694,-21.668 98.456,-32.753Z" style="fill:#4c5356;"/><g><path d="M284.508,306.595c1.617,2.549 4.081,4.722 5.53,7.188c6.515,11.085 6.163,24.971 6.355,37.426c0.001,0.111 0.575,0.139 0.798,0.698c-0.356,1.401 -0.659,2.137 -0.458,3.571l0.298,0.041c-0.771,4.607 -1.785,10.529 -2.852,15.11c-1.196,1.103 -5.966,5.611 -7.055,6.226c-2.001,0.666 -14.829,12.695 -17.297,14.93c-2.824,-2.768 -6.023,-4.445 -8.634,-7.561c-2.106,-2.514 -1.685,-3.794 -3.103,-6.115c-0.697,-1.141 -0.032,0.731 -0.498,-0.812c1.292,-2.292 13.929,-11.703 16.252,-14.777c0.82,-1.083 0.716,-1.573 0.516,-2.833c0.105,-1.931 2.503,-13.153 3.039,-15.881c2.409,-12.275 4.498,-25.011 7.109,-37.211Z" style="fill:#5ec34c;fill-rule:nonzero;"/><path d="M242.705,298.526c19.227,-6.971 38.959,-12.987 58.256,-19.796c3.504,-1.237 7.135,-2.466 10.674,-3.6l-10.814,59.356c-1.274,6.929 -2.361,14.168 -3.79,21.033l-0.298,-0.041c-0.201,-1.434 0.102,-2.17 0.458,-3.571c-0.223,-0.559 -0.797,-0.587 -0.798,-0.698c-0.192,-12.455 0.16,-26.341 -6.355,-37.426c-1.449,-2.466 -3.913,-4.639 -5.53,-7.188l-0.005,-0.65c-0.803,-0.368 -0.931,-0.079 -2.067,0.298c-13.914,-13.554 -37.096,-5.924 -39.731,-7.717Z" style="fill:url(#_Linear1);fill-rule:nonzero;"/><path d="M274.36,359.687c0.2,1.26 0.304,1.75 -0.516,2.833c-2.323,3.074 -14.96,12.485 -16.252,14.777c0.466,1.543 -0.199,-0.329 0.498,0.812c1.418,2.321 0.997,3.601 3.103,6.115c2.611,3.116 5.81,4.793 8.634,7.561c2.468,-2.235 15.296,-14.264 17.297,-14.93c-1.898,1.943 -3.948,3.684 -5.953,5.51c-10.324,9.407 -21.141,18.675 -30.604,28.947l65.496,-26.207c-0.164,0.771 -0.494,1.918 0.061,2.542c3.047,3.429 10.499,2.521 10.523,9.221c0.007,1.794 -2.063,4.673 -0.671,6.29l0.368,0.756c-8.96,3.774 -18.686,7.374 -27.776,10.956l-51.002,20.118c-9.467,3.716 -19.198,7.364 -28.586,11.185c8.397,2.966 14.903,5.282 23.697,7.159c26.262,5.603 53.636,2.461 77.944,-8.946c10.856,-5.205 17.022,-9.223 26.399,-16.433l8.663,-7.759c1.907,-2.001 8.751,-9.955 9.807,-10.816c-0.064,1.38 -3.478,4.78 -4.554,5.894c0.916,1.785 1.156,2.237 1.682,4.204l0.414,0.064c2.737,-2.081 4.909,-6.788 7.139,-7.895c-2.628,3.719 -7.864,9.573 -9.851,12.729c1.028,-0.45 1.897,-1.446 3.37,-2.162c-1.947,2.749 -4.152,5.24 -6.329,7.808c-4.486,4.464 -8.435,8.75 -13.217,12.923c-20.245,17.668 -43.194,27.045 -69.494,31.542c-16.028,2.768 -48.262,-2.189 -63.12,-8.983c-11.837,-3.63 -24.919,-10.231 -35.056,-17.352c2.048,-2.195 7.705,-6.996 10.101,-9.106l19.406,-17.048l51.794,-45.892c5.01,-4.482 10.166,-8.743 15.086,-13.306c1.186,-1.1 1.125,-1.408 1.499,-3.111Z" style="fill:url(#_Linear2);fill-rule:nonzero;"/><path d="M360.32,424.374c1.028,-0.45 1.897,-1.446 3.37,-2.162c-1.947,2.749 -4.152,5.24 -6.329,7.808c-4.486,4.464 -8.435,8.75 -13.217,12.923c-20.245,17.668 -43.194,27.045 -69.494,31.542c-16.028,2.768 -48.262,-2.189 -63.12,-8.983c2.047,0.394 4.172,0.872 6.192,1.343c47.875,11.157 101.015,-0.36 136.233,-35.713c2.173,-2.182 4.168,-4.594 6.365,-6.758Z" style="fill:url(#_Linear3);fill-rule:nonzero;"/><path d="M347.02,427.953l8.663,-7.759c-0.756,1.522 -0.375,2.641 -0.87,3.491c-1.267,0.976 -6.462,4.115 -7.793,4.268Z" style="fill:#5ec34c;fill-rule:nonzero;"/><path d="M325.895,344.736c0.379,-3.598 1.848,-10.155 2.563,-13.874l5.356,-27.643l6.29,-32.537c1.123,-5.874 2.311,-13.269 3.743,-18.926c8.432,15.062 9.896,33.557 9.215,50.45c-0.121,3.008 -0.86,10.659 0.088,13.03c-1.186,8.007 -3.131,16.998 -4.62,25.032c-0.861,4.648 -2.22,13.095 -3.403,17.384c-1.616,11.748 -4.944,23.923 -6.849,35.691c-0.328,2.028 -0.81,4.499 -1.322,6.485c-3.256,1.259 -7.381,2.999 -10.612,4.086l-0.368,-0.756c-1.392,-1.617 0.678,-4.496 0.671,-6.29c-0.024,-6.7 -7.476,-5.792 -10.523,-9.221c-0.555,-0.624 -0.225,-1.771 -0.061,-2.542l2.047,-0.87c1.935,-9.081 3.504,-18.304 5.317,-27.401c0.488,-2.446 1.78,-10.172 2.468,-12.098Z" style="fill:#80d148;fill-rule:nonzero;"/><path d="M318.11,384.235c1.935,-9.081 3.504,-18.304 5.317,-27.401c0.488,-2.446 1.78,-10.172 2.468,-12.098l0.239,0.479c-0.791,6.038 -2.958,13.91 -3.659,20.098c0.104,0.559 0.717,1.366 1.004,1.754c1.62,2.189 4.612,3.609 6.442,5.379c1.581,1.529 6.194,5.587 7.255,7.074c1.542,2.158 -0.627,4.524 1.463,8.113l0.297,-0.152c0.986,-4.03 4.766,-27.866 6.191,-29.829c-1.616,11.748 -4.944,23.923 -6.849,35.691c-0.328,2.028 -0.81,4.499 -1.322,6.485c-3.256,1.259 -7.381,2.999 -10.612,4.086l-0.368,-0.756c-1.392,-1.617 0.678,-4.496 0.671,-6.29c-0.024,-6.7 -7.476,-5.792 -10.523,-9.221c-0.555,-0.624 -0.225,-1.771 -0.061,-2.542l2.047,-0.87Z" style="fill:#5ec34c;fill-rule:nonzero;"/><path d="M300.948,229.369c1.47,0.838 4.351,0.473 6.231,0.468c12.775,-0.037 20.068,1.86 29.371,10.461l-80.579,26.798l-23.257,7.731c-3.592,1.197 -9.25,3.277 -12.83,4.175l0.026,-0.125c0.768,-0.784 4.21,-1.814 5.422,-2.085c-0.722,-5.093 -13.3,-10.192 -11.909,-16.894c0.092,-0.447 0.75,-0.724 1.162,-0.993l-0.047,-0.285c-2.876,0.105 -9.49,3.669 -11.328,3.045c2.601,-1.065 7.907,-2.62 10.786,-3.572l21.965,-7.28c21.626,-7.259 43.288,-14.407 64.987,-21.444Z" style="fill:url(#_Linear4);fill-rule:nonzero;"/><path d="M357.979,210.573c1.001,0.05 1.422,-0.01 2.409,-0.21c4.083,1.927 8.217,6.724 9.929,10.885c0.315,0.767 0.045,1.522 -0.179,2.294l0.217,0.264l0.185,0.006c-4.629,26.759 -10.395,53.446 -15.254,80.17c-0.663,3.648 -1.312,7.663 -2.136,11.254c-0.948,-2.371 -0.209,-10.022 -0.088,-13.03c0.681,-16.893 -0.783,-35.388 -9.215,-50.45c0.147,-2.052 2.504,-12.595 3.072,-14.884c-3.405,0.961 -7.042,2.233 -10.369,3.426c-9.303,-8.601 -16.596,-10.498 -29.371,-10.461c-1.88,0.005 -4.761,0.37 -6.231,-0.468l38.757,-12.706c5.857,-1.951 12.458,-4.424 18.274,-6.09Z" style="fill:url(#_Linear5);fill-rule:nonzero;"/><path d="M246.611,63.071l0.362,-0.346c2.926,1.277 22.221,22.444 25.521,26.668c1.887,2.416 6.986,9.798 8.818,11.748c0.555,1.604 6.994,11.832 8.522,14.772c6.513,12.742 11.025,26.411 13.379,40.525c0.218,1.255 1.004,5.851 0.803,6.814c-1.058,-1.652 -1.264,-4.657 -1.471,-6.637l-0.331,0.371c-1.209,0.061 -4.351,-0.021 -5.007,0.612c-0.44,2.712 1.045,4.651 0.114,7.548c-0.504,-4.602 -0.836,-9.008 -1.738,-13.566c-4.859,-24.551 -19.465,-46.305 -37.165,-63.634c3.489,25.323 3.263,45.993 -5.195,70.585c-0.891,2.589 -3.398,9.782 -4.835,11.959l-0.138,-0.148c-0.028,-0.509 0.043,-0.932 0.142,-1.43c-4.193,-0.939 -10.38,7.07 -13.384,9.58c1.291,-3.179 6.214,-9.309 6.508,-12.058c0.387,-1.362 2.926,-5.973 3.698,-7.766c3.078,-7.148 7.769,-20.146 8.281,-27.897c2.317,-9.719 2.614,-33.885 -0.483,-43.335c-0.725,-6.381 -4.453,-18.151 -6.401,-24.365Z" style="fill:url(#_Linear6);fill-rule:nonzero;"/><path d="M115.982,312.739c-0.632,-34.665 9.248,-62.075 29.067,-90.4c5.726,-8.183 12.145,-15.907 17.911,-24.167c5.435,-7.452 10.646,-15.126 15.302,-23.093c1.729,-2.958 4.11,-6.268 5.442,-9.378c0.408,2.675 1.436,5.611 2.092,8.278c0.816,3.317 1.508,6.626 2.216,9.967l3.277,16.063c0.327,1.634 1.303,6.103 1.409,7.64c-0.724,0.715 1.56,7.156 0.88,7.769c-0.929,0.838 -9.347,4.553 -10.358,4.946l-0.467,-0.36c-0.196,-3.771 -2.206,-11.882 -3.013,-16.145l-0.327,0.254c-1.148,-3.793 -1.608,-8.633 -2.642,-12.502c-11.469,13.003 -24.183,29.097 -33.686,43.455c-13.181,19.914 -21.799,46.435 -22.891,70.341c-1.269,4.394 -0.62,11.28 -0.347,15.891c0.127,2.133 0.549,4.104 0.37,6.273c-0.681,-0.232 -1.076,-0.116 -1.771,-0.022c-1.303,-0.614 -0.821,-1.612 -1.209,-3.109c-1,-3.863 -0.055,-7.836 -1.255,-11.701Z" style="fill:url(#_Linear7);fill-rule:nonzero;"/><path d="M203.21,261.665c1.838,0.624 8.452,-2.94 11.328,-3.045l0.047,0.285c-0.412,0.269 -1.07,0.546 -1.162,0.993c-1.391,6.702 11.187,11.801 11.909,16.894c-1.212,0.271 -4.654,1.301 -5.422,2.085l-0.026,0.125c-9.452,3.344 -21.575,6.628 -30.539,10.16c-1.328,4.926 -2.831,11.157 -3.876,16.172c-1.234,-0.782 -4.061,-3.255 -5.312,-4.245c-4.208,-3.33 -8.26,-6.825 -12.645,-9.938c1.528,-5.299 3.393,-13.716 4.546,-19.182c10.305,-3.402 20.825,-7.055 31.152,-10.304Z" style="fill:#5ec34c;fill-rule:nonzero;"/><path d="M388.727,290.983c0.588,2.106 0.055,5.727 0.608,6.938c3.479,0.233 4.227,2.854 7.186,3.164c0.395,-2.531 -0.83,-2.394 0.099,-4.74c0.655,2.486 0.852,9.039 1.273,12.045c2.812,20.063 3.216,39.327 -1.911,59.145c-0.409,6.291 -7.656,21.605 -10.611,27.354c-3.692,6.052 -6.592,10.948 -10.943,16.71c-1.806,2.393 -4.819,6.018 -6.39,8.296c-1.759,1.955 -8.629,9.82 -10.677,10.125c2.177,-2.568 4.382,-5.059 6.329,-7.808c-1.473,0.716 -2.342,1.712 -3.37,2.162c1.987,-3.156 7.223,-9.01 9.851,-12.729c-2.23,1.107 -4.402,5.814 -7.139,7.895l-0.414,-0.064c-0.526,-1.967 -0.766,-2.419 -1.682,-4.204c1.076,-1.114 4.49,-4.514 4.554,-5.894c0.681,-1.247 2.238,-3.159 3.168,-4.369c12.272,-15.966 18.031,-33.573 21.649,-52.959c1.12,-7.405 1.497,-14.904 1.126,-22.384c-0.756,-14.084 -3.06,-23.57 -2.706,-38.683Z" style="fill:#dd5767;fill-rule:nonzero;"/><path d="M365.49,409.378c0.681,-1.247 2.238,-3.159 3.168,-4.369c12.272,-15.966 18.031,-33.573 21.649,-52.959c0.175,5.185 -1.14,8.424 -1.221,12.117c-3.315,16.124 -7.078,28.384 -15.349,42.878c-1.946,1.738 -2.36,3.32 -3.566,4.6c-2.23,1.107 -4.402,5.814 -7.139,7.895l-0.414,-0.064c-0.526,-1.967 -0.766,-2.419 -1.682,-4.204c1.076,-1.114 4.49,-4.514 4.554,-5.894Z" style="fill:#5ec34c;fill-rule:nonzero;"/><path d="M389.086,364.167c1.322,4.395 -5.538,20.291 -4.994,22.996c1.018,-0.738 0.535,-0.691 1.485,-0.617c0.677,0.805 0.695,1.564 0.513,2.574l0.837,0.112l-0.486,0.789l0.266,0.516l0.288,0.021l0.133,-0.385c1.944,-5.468 5.342,-10.966 6.68,-16.851c0.215,-0.946 1.6,-5.283 2.174,-5.787c-0.409,6.291 -7.656,21.605 -10.611,27.354c-3.692,6.052 -6.592,10.948 -10.943,16.71c-1.806,2.393 -4.819,6.018 -6.39,8.296c-1.759,1.955 -8.629,9.82 -10.677,10.125c2.177,-2.568 4.382,-5.059 6.329,-7.808c-1.473,0.716 -2.342,1.712 -3.37,2.162c1.987,-3.156 7.223,-9.01 9.851,-12.729c1.206,-1.28 1.62,-2.862 3.566,-4.6c8.271,-14.494 12.034,-26.754 15.349,-42.878Z" style="fill:#c5284b;fill-rule:nonzero;"/><path d="M370.171,411.645c1.206,-1.28 1.62,-2.862 3.566,-4.6c-1.21,2.685 -7.915,13.905 -10.047,15.167c-1.473,0.716 -2.342,1.712 -3.37,2.162c1.987,-3.156 7.223,-9.01 9.851,-12.729Z" style="fill:#1b954d;fill-rule:nonzero;"/><path d="M194.46,216.252c3.447,-2.559 6.99,-4.801 10.444,-7.502c12.801,-10.006 24.581,-22.212 32.996,-36.163c1.24,-2.054 2.367,-4.116 3.616,-6.153c-0.294,2.749 -5.217,8.879 -6.508,12.058c3.004,-2.51 9.191,-10.519 13.384,-9.58c-0.099,0.498 -0.17,0.921 -0.142,1.43l0.138,0.148c-11.366,27.198 -37.409,51.055 -62.72,65.297c-2.023,-10.497 -4.428,-21.172 -6.255,-31.674l0.327,-0.254c0.807,4.263 2.817,12.374 3.013,16.145l0.467,0.36c1.011,-0.393 9.429,-4.108 10.358,-4.946c0.68,-0.613 -1.604,-7.054 -0.88,-7.769c0.71,2.513 1.266,5.977 1.762,8.603Z" style="fill:url(#_Linear8);fill-rule:nonzero;"/><path d="M324.859,181.538c10.439,-2.991 20.231,-8.763 29.573,-14.039c-1.238,1.38 -5.487,3.397 -5.53,4.789c0.751,0.633 1.359,1.144 2.043,1.862c0.799,0.839 1.427,3.644 2.548,3.518c1.185,-0.134 1.54,-0.827 2.832,-0.886c-15.199,11.001 -44.936,22.585 -63.29,26.097c4.777,-3.804 8.646,-7.66 11.481,-13.067l1.649,-3.141c2.175,0.756 15.984,-4.072 18.694,-5.133Z" style="fill:#dd5767;fill-rule:nonzero;"/><path d="M388.727,290.983c-0.38,-30.324 10.602,-63.733 28.313,-88.113c2.458,-3.383 5.677,-8.083 8.474,-11.137c-1.136,3.157 -7.127,10.786 -8.777,14.828c-1.422,1.719 -4.384,8.24 -5.46,10.555c-12.051,25.905 -15.856,51.05 -14.657,79.229c-0.929,2.346 0.296,2.209 -0.099,4.74c-2.959,-0.31 -3.707,-2.931 -7.186,-3.164c-0.553,-1.211 -0.02,-4.832 -0.608,-6.938Z" style="fill:#f39585;fill-rule:nonzero;"/><path d="M354.432,167.499c0.973,-0.449 5.225,-3.3 6.248,-3.997c5.91,-4.067 11.582,-8.469 16.99,-13.183c3.516,-3.033 8.226,-7.95 12.247,-10.033c4.103,-2.128 8.356,-4.477 12.453,-6.591l3.006,2.921c-12.791,12.814 -26.615,24.555 -41.333,35.101c-1.274,0.904 -6.603,4.622 -7.718,5.065c-1.292,0.059 -1.647,0.752 -2.832,0.886c-1.121,0.126 -1.749,-2.679 -2.548,-3.518c-0.684,-0.718 -1.292,-1.229 -2.043,-1.862c0.043,-1.392 4.292,-3.409 5.53,-4.789Z" style="fill:#f39585;fill-rule:nonzero;"/><path d="M167.512,291.151c4.385,3.113 8.437,6.608 12.645,9.938c1.251,0.99 4.078,3.463 5.312,4.245c-1.497,6.339 -3.046,12.665 -4.646,18.978c-0.233,-1.077 0.253,-2.297 -0.267,-2.572c-4.846,-2.566 -11.921,-4.285 -17.332,-4.712c-1.168,-0.092 -0.904,0.037 -1.788,-0.393c2.233,-8.028 4.152,-17.283 6.076,-25.484Z" style="fill:#27c7c7;fill-rule:nonzero;"/><path d="M297.321,165.146c0.931,-2.897 -0.554,-4.836 -0.114,-7.548c0.656,-0.633 3.798,-0.551 5.007,-0.612l0.331,-0.371c0.207,1.98 0.413,4.985 1.471,6.637c0.521,4.808 1.466,21.097 0.128,25.158l-0.161,-2.55c0.069,0.571 -0.253,1.954 -0.81,2.335c-2.038,-0.134 -4.77,-1.51 -6.565,-2.465c0.044,-1.234 0.34,-3.595 -0.278,-4.483c0.832,-5.414 0.955,-10.646 0.991,-16.101Z" style="fill:#90eef0;fill-rule:nonzero;"/><path d="M115.982,312.739c1.2,3.865 0.255,7.838 1.255,11.701c0.388,1.497 -0.094,2.495 1.209,3.109c0.695,-0.094 1.09,-0.21 1.771,0.022c0.179,-2.169 -0.243,-4.14 -0.37,-6.273c-0.273,-4.611 -0.922,-11.497 0.347,-15.891c-0.288,20.718 1.27,36.409 8.855,56.027c1.246,3.283 2.604,6.522 4.072,9.712c0.945,2.016 3.208,6.355 3.769,8.228c-1.534,-1.532 -3.494,-4.806 -4.612,-6.728c-7.92,-13.602 -12.675,-28.982 -15.077,-44.487c-0.717,-4.627 -1.454,-10.801 -1.219,-15.42Z" style="fill:#2261a0;fill-rule:nonzero;"/><path d="M296.33,181.247c0.618,0.888 0.322,3.249 0.278,4.483c1.795,0.955 4.527,2.331 6.565,2.465c0.557,-0.381 0.879,-1.764 0.81,-2.335l0.161,2.55c0.064,0.748 0.012,0.762 0.372,1.402c-2.835,5.407 -6.704,9.263 -11.481,13.067c-1.009,0.278 -2.131,0.521 -3.158,0.765c3.337,-8.406 4.981,-13.319 6.453,-22.397Z" style="fill:#c7f9fb;fill-rule:nonzero;"/><path d="M357.979,210.573c5.389,-1.892 10.844,-3.541 16.183,-5.426c-1.233,5.476 -2.312,13.897 -3.622,18.665l-0.185,-0.006l-0.217,-0.264c0.224,-0.772 0.494,-1.527 0.179,-2.294c-1.712,-4.161 -5.846,-8.958 -9.929,-10.885c-0.987,0.2 -1.408,0.26 -2.409,0.21Z" style="fill:#e9fccc;fill-rule:nonzero;"/><path d="M173.321,205.754c0.541,3.297 1.27,6.59 1.957,9.862c-17.354,18.365 -32.013,44.271 -37.698,68.962c-0.921,4.119 -1.65,8.279 -2.185,12.465c-0.212,1.705 -0.612,6.334 -0.958,7.823c-0.404,16.985 0.405,30.624 5.837,46.995c0.769,2.318 2.591,7.417 3.741,9.346c-0.729,3.618 -1.891,7.805 -2.716,11.563c-2.147,-3.08 -3.779,-7.204 -5.211,-10.708c-7.014,-17.032 -10.351,-35.353 -9.793,-53.764c0.117,-3.318 0.368,-8.125 1.007,-11.361c0.23,-4.184 1.929,-11.738 2.892,-15.877c6.922,-29.766 23.757,-52.384 43.127,-75.306Z" style="fill:#27c7c7;fill-rule:nonzero;"/><path d="M127.302,296.937c0.465,2.278 -0.555,10.663 -0.571,13.98c-0.055,11.56 1.246,21.347 3.783,32.608c2.003,-0.706 4.926,-1.423 6.099,-3.078c-0.073,-2.024 -0.982,-3.736 -1.18,-5.607c-0.921,-8.698 -2.764,-21.206 -1.338,-29.764l0.252,-0.225l0.09,0.015c-0.404,16.985 0.405,30.624 5.837,46.995c0.769,2.318 2.591,7.417 3.741,9.346c-0.729,3.618 -1.891,7.805 -2.716,11.563c-2.147,-3.08 -3.779,-7.204 -5.211,-10.708c-7.014,-17.032 -10.351,-35.353 -9.793,-53.764c0.117,-3.318 0.368,-8.125 1.007,-11.361Z" style="fill:#189aaa;fill-rule:nonzero;"/><path d="M151.574,430.401c-6.453,-5.884 -12.361,-12.339 -17.652,-19.286c-25.731,-33.739 -37.071,-76.286 -31.545,-118.356c3.052,-23.618 11.177,-46.298 23.816,-66.483c3.398,-5.446 7.21,-10.555 10.933,-15.782l16.02,-22.471c11.549,-16.129 25.197,-34.362 28.861,-54.286c0.178,-0.969 0.28,-3.7 0.855,-4.142c1.451,1.047 2.945,4.118 4.033,5.658c8.527,12.071 10.543,25.382 13.011,39.661c-0.232,2.821 -8.524,12.758 -10.701,12.766c0.063,-1.229 -0.431,-2.768 -1.193,-3.734c-0.708,-3.341 -1.4,-6.65 -2.216,-9.967c-0.656,-2.667 -1.684,-5.603 -2.092,-8.278c-1.332,3.11 -3.713,6.42 -5.442,9.378c-4.656,7.967 -9.867,15.641 -15.302,23.093c-5.766,8.26 -12.185,15.984 -17.911,24.167c-19.819,28.325 -29.699,55.735 -29.067,90.4c-0.235,4.619 0.502,10.793 1.219,15.42c2.402,15.505 7.157,30.885 15.077,44.487c1.118,1.922 3.078,5.196 4.612,6.728c1.162,2.143 5.307,7.722 6.909,10.002c2.227,-8.08 4.208,-17.14 6.156,-25.364l7.436,-30.694c1.307,-5.447 2.577,-11.34 4.045,-16.683c0.884,0.43 0.62,0.301 1.788,0.393c5.411,0.427 12.486,2.146 17.332,4.712c0.52,0.275 0.034,1.495 0.267,2.572c-0.839,4.833 -2.926,12.139 -4.151,17.191c-1.444,5.95 -3.133,13.732 -4.898,19.474c4.251,-4.682 7.965,-10.162 11.587,-15.342c0.575,-0.821 2.77,-4.283 3.322,-4.737c2.998,-4.538 7.273,-10.987 10.522,-15.217c2.879,-3.997 5.723,-8.018 8.53,-12.065c5.408,4.265 10.99,8.804 16.461,12.951c-3.651,5.315 -7.235,10.676 -10.751,16.081c-1.694,2.392 -4.807,7.109 -6.535,9.196c-1.899,3.285 -5.559,8.301 -7.768,11.518l-15.725,22.853l-19.315,28.669c-3.375,5.029 -6.993,10.658 -10.528,15.517Z" style="fill:url(#_Linear9);fill-rule:nonzero;"/><path d="M205.735,313.616c5.408,4.265 10.99,8.804 16.461,12.951c-3.651,5.315 -7.235,10.676 -10.751,16.081c-0.726,-1.499 -1.276,-3 -2.058,-4.438c-2.747,-5.054 -7.845,-8.67 -12.182,-12.529c2.879,-3.997 5.723,-8.018 8.53,-12.065Z" style="fill:#27c7c7;fill-rule:nonzero;"/><path d="M197.205,325.681c4.337,3.859 9.435,7.475 12.182,12.529c0.782,1.438 1.332,2.939 2.058,4.438c-1.694,2.392 -4.807,7.109 -6.535,9.196l-0.317,-0.037c0.126,-1.04 4.168,-6.15 5.152,-7.628c-0.229,-0.278 -0.16,-0.23 -0.456,-0.439c-3.315,-2.342 -5.694,-5.545 -8.55,-8.344c-1.764,-1.729 -4.186,-3.591 -6.16,-5.156c-1.234,1.85 -6.497,10.09 -7.896,10.658c2.998,-4.538 7.273,-10.987 10.522,-15.217Z" style="fill:#189aaa;fill-rule:nonzero;"/><path d="M469.214,140.625c7.76,5.238 11.878,9.751 13.766,19.265c0.625,3.17 0.903,6.398 0.83,9.628c-0.038,1.661 -0.523,4.762 0.27,6.132c-0.432,4.724 -2.084,11.316 -2.974,16.154c-2.13,11.877 -4.323,23.742 -6.581,35.596c-0.748,3.95 -1.566,7.886 -2.456,11.807l-28.851,-29.655c-3.94,5.128 -7.931,10.229 -11.343,15.731c-13.826,22.36 -20.536,48.391 -19.243,74.649c0.292,5.947 1.272,12.126 1.58,18.073c0.905,16.93 -0.958,33.895 -5.518,50.226c-1.894,6.644 -4.823,15.566 -7.964,21.781c-2.254,1.773 -4.062,8.948 -6.839,11.459l-0.264,-0.084l0.075,-0.579c-0.758,-0.003 -0.404,-0.022 -1.194,0.453c-0.416,-0.84 -0.576,-1.591 -1.237,-1.928c-1.268,0.367 -1.438,0.504 -2.595,1.197c-0.812,-0.039 -1.235,-0.086 -2.019,-0.199c-0.991,-1.11 -1.427,-1.641 -2.249,-2.876c0.319,-0.752 0.808,-1.786 0.963,-2.566c2.955,-5.749 10.202,-21.063 10.611,-27.354c5.127,-19.818 4.723,-39.082 1.911,-59.145c-0.421,-3.006 -0.618,-9.559 -1.273,-12.045c-1.199,-28.179 2.606,-53.324 14.657,-79.229c1.076,-2.315 4.038,-8.836 5.46,-10.555c1.65,-4.042 7.641,-11.671 8.777,-14.828c1.687,-3 14.004,-16.313 16.527,-18.971c5.911,6.001 11.727,12.096 17.444,18.282c1.213,-4.387 2.572,-13.026 3.495,-17.733c2.24,-10.863 4.318,-21.76 6.234,-32.686Z" style="fill:url(#_Linear10);fill-rule:nonzero;"/><path d="M469.214,140.625c7.76,5.238 11.878,9.751 13.766,19.265c0.625,3.17 0.903,6.398 0.83,9.628c-0.038,1.661 -0.523,4.762 0.27,6.132c-0.432,4.724 -2.084,11.316 -2.974,16.154c-2.13,11.877 -4.323,23.742 -6.581,35.596c-1.842,-1.299 -7.595,-7.49 -9.439,-9.301c-7.125,-7 -14.262,-14.689 -21.611,-21.403c-7.818,9.551 -15.569,19.83 -20.793,30.963c-0.269,0.573 -1.282,2.465 -1.838,2.649c1.008,-2.547 2.732,-4.918 3.706,-7.561c0.314,-0.792 1.276,-1.533 1.617,-2.231c3.183,-6.524 7.973,-12.451 12.265,-18.301c1.382,-1.884 3.193,-4.244 4.838,-5.885c-3.398,-3.266 -4.174,-4.651 -6.697,-8.488c-0.489,-0.742 -2.713,-3.195 -3.684,-3.34c-4.857,1.65 -13.003,19.9 -16.152,22.059c1.65,-4.042 7.641,-11.671 8.777,-14.828c1.687,-3 14.004,-16.313 16.527,-18.971c5.911,6.001 11.727,12.096 17.444,18.282c1.213,-4.387 2.572,-13.026 3.495,-17.733c2.24,-10.863 4.318,-21.76 6.234,-32.686Z" style="fill:url(#_Linear11);fill-rule:nonzero;"/><path d="M422.684,90.055c10.219,0.08 20.046,0.438 27.938,8.172c1.29,1.264 3.307,4.015 3.988,5.666c-12.137,3.107 -24.295,6.134 -36.471,9.082c-3.176,1.049 -7.597,1.991 -10.928,2.803c-6.359,1.595 -12.751,3.059 -19.17,4.39c4.695,4.594 9.472,9.103 14.329,13.527c-4.097,2.114 -8.35,4.463 -12.453,6.591c-4.021,2.083 -8.731,7 -12.247,10.033c-5.408,4.714 -11.08,9.116 -16.99,13.183c-1.023,0.697 -5.275,3.548 -6.248,3.997c-9.342,5.276 -19.134,11.048 -29.573,14.039c-1.376,-0.594 -5.957,2.359 -8.143,2.182c-3.712,-2.104 -0.972,-9.953 -0.313,-13.072c1.904,-2.142 2.195,0.277 5.114,-1.22l0.158,-0.58c18.372,-8.382 35.231,-19.742 49.898,-33.622c-3.673,-3.372 -7.934,-6.779 -11.787,-10.033c-5.876,-4.976 -11.722,-9.987 -17.538,-15.032c14.028,-3.835 28.388,-6.917 42.449,-10.698c4.569,-1.229 10.187,-2.848 14.761,-3.58c3.584,-1.282 9.187,-2.002 12.979,-3.416c2.733,-0.427 7.406,-1.712 10.247,-2.412Z" style="fill:#ed692c;fill-rule:nonzero;"/><path d="M422.684,90.055c10.219,0.08 20.046,0.438 27.938,8.172c1.29,1.264 3.307,4.015 3.988,5.666c-12.137,3.107 -24.295,6.134 -36.471,9.082l-0.408,-0.295c5.928,-1.557 11.875,-3.04 17.839,-4.451c2.866,-0.699 7.277,-1.642 9.882,-2.627l0.314,-1.635c-0.554,-2.307 -10.432,-11.667 -12.895,-12.548c-8.141,-2.914 -18.464,1.481 -26.539,3.192c-1.922,0.408 -5.082,1.672 -6.874,1.272c3.584,-1.282 9.187,-2.002 12.979,-3.416c2.733,-0.427 7.406,-1.712 10.247,-2.412Z" style="fill:#fcb31e;fill-rule:nonzero;"/><path d="M472.079,78.406c2.303,2.395 4.913,4.37 7.316,6.652c4.894,4.648 9.868,9.169 14.93,13.631c1.152,1.015 1.855,2.673 2.847,3.793c0.303,-0.668 0.38,-1.158 0.888,-1.507c-0.749,6.311 -2.832,15.748 -4.055,22.234l-7.263,38.984c-1.04,4.404 -1.629,9.262 -2.662,13.457c-0.793,-1.37 -0.308,-4.471 -0.27,-6.132c0.073,-3.23 -0.205,-6.458 -0.83,-9.628c-1.888,-9.514 -6.006,-14.027 -13.766,-19.265c2.979,-13.865 5.523,-28.359 8.396,-42.357l-23,5.625c-0.681,-1.651 -2.698,-4.402 -3.988,-5.666c-7.892,-7.734 -17.719,-8.092 -27.938,-8.172c14.442,-3.12 29.645,-7.927 44.025,-10.882c1.525,0.295 3.623,-0.474 5.37,-0.767Z" style="fill:url(#_Linear12);fill-rule:nonzero;"/><path d="M281.312,101.141c-0.811,-3.168 -8.094,-10.556 -9.391,-13.61l1.125,-0.051c1.437,-1.344 -0.119,-0.447 0.751,-1.534c1.605,0.566 10.705,12.287 12.46,14.322l0.564,0.105c3.231,4.303 6.332,10.168 8.93,13.522l0.379,-0.391c-2.224,-3.818 -4.553,-7.41 -7.036,-11.046c-0.956,-1.4 -4.88,-6.373 -5.367,-7.436c0.644,-0.825 1.257,-0.627 2.01,-0.968c1.627,-0.737 2.292,-3.17 4.577,-3.46c2.662,1.877 8.54,12.318 10.556,15.515c1.215,1.926 2.311,4.944 3.955,6.488c8.887,17.504 14.946,37.464 13.819,57.246c0.607,-0.216 2.514,-0.952 3.031,-0.995l-0.158,0.58c-2.919,1.497 -3.21,-0.922 -5.114,1.22c-0.659,3.119 -3.399,10.968 0.313,13.072c2.186,0.177 6.767,-2.776 8.143,-2.182c-2.71,1.061 -16.519,5.889 -18.694,5.133l-1.649,3.141c-0.36,-0.64 -0.308,-0.654 -0.372,-1.402c1.338,-4.061 0.393,-20.35 -0.128,-25.158c0.201,-0.963 -0.585,-5.559 -0.803,-6.814c-2.354,-14.114 -6.866,-27.783 -13.379,-40.525c-1.528,-2.94 -7.967,-13.168 -8.522,-14.772Z" style="fill:#aa205c;fill-rule:nonzero;"/><path d="M281.312,101.141c-0.811,-3.168 -8.094,-10.556 -9.391,-13.61l1.125,-0.051c1.437,-1.344 -0.119,-0.447 0.751,-1.534c1.605,0.566 10.705,12.287 12.46,14.322l0.564,0.105c3.231,4.303 6.332,10.168 8.93,13.522c10.178,20.168 19.864,51.027 10.414,72.776l-1.649,3.141c-0.36,-0.64 -0.308,-0.654 -0.372,-1.402c1.338,-4.061 0.393,-20.35 -0.128,-25.158c0.201,-0.963 -0.585,-5.559 -0.803,-6.814c-2.354,-14.114 -6.866,-27.783 -13.379,-40.525c-1.528,-2.94 -7.967,-13.168 -8.522,-14.772Z" style="fill:#27c7c7;fill-rule:nonzero;"/><path d="M238.517,126.229c0.578,0.889 -0.157,3.633 -0.432,4.932c-0.853,4.013 -1.899,7.984 -3.134,11.897c-0.579,1.78 -2.421,6.327 -2.6,7.828c2.181,2.507 14.237,7.886 15.001,1.405c0.391,-3.31 2.85,-7.663 3.495,-11.29c0.184,-1.034 2.286,-10.156 2.304,-10.189l0.344,-0.041c-0.512,7.751 -5.203,20.749 -8.281,27.897c-0.772,1.793 -3.311,6.404 -3.698,7.766c-1.249,2.037 -2.376,4.099 -3.616,6.153c-8.415,13.951 -20.195,26.157 -32.996,36.163c-3.454,2.701 -6.997,4.943 -10.444,7.502c-0.496,-2.626 -1.052,-6.09 -1.762,-8.603c-0.106,-1.537 -1.082,-6.006 -1.409,-7.64l-3.277,-16.063c0.762,0.966 1.256,2.505 1.193,3.734c2.177,-0.008 10.469,-9.945 10.701,-12.766c1.232,6.288 1.941,12.484 3.06,18.734c16.189,-16.628 28.443,-36.165 33.732,-58.755c0.613,-2.619 0.997,-5.856 1.718,-8.325l0.101,-0.339Z" style="fill:url(#_Linear13);fill-rule:nonzero;"/><path d="M236.536,81.289l0.191,-0.426c-0.221,-1.38 -1.247,-4.837 -1.094,-5.635c1.748,0.11 7.89,1.584 9.439,2.618c1.253,0.836 3.072,1.924 4.537,2.305c0.652,-0.268 0.658,-0.28 1.224,-0.704c1.033,1.512 0.995,7.365 2.179,7.989c3.097,9.45 2.8,33.616 0.483,43.335l-0.344,0.041c-0.018,0.033 -2.12,9.155 -2.304,10.189c-0.645,3.627 -3.104,7.98 -3.495,11.29c-0.764,6.481 -12.82,1.102 -15.001,-1.405c0.179,-1.501 2.021,-6.048 2.6,-7.828c1.235,-3.913 2.281,-7.884 3.134,-11.897c0.275,-1.299 1.01,-4.043 0.432,-4.932c0.119,-1.783 0.414,-3.815 0.625,-5.611c1.576,-13.467 -0.19,-26.069 -2.606,-39.329Z" style="fill:#2261a0;fill-rule:nonzero;"/><path d="M242.705,298.526c2.635,1.793 25.817,-5.837 39.731,7.717l-40.052,13.477l-12.603,4.172c-2.182,0.716 -5.66,1.734 -7.585,2.675c-5.471,-4.147 -11.053,-8.686 -16.461,-12.951c0.565,-1.065 1.855,-2.885 2.669,-3.734c10.544,-3.258 23.929,-8.614 34.301,-11.356Z" style="fill:url(#_Linear14);fill-rule:nonzero;"/><path d="M221.997,31.404c13.852,9.056 32.708,21.039 44.414,32.67l0.154,0.251c1.387,2.236 3.078,4.412 4.544,6.692c4.412,6.864 7.939,14.202 10.144,22.074c1.146,1.411 4.922,6.008 5.568,7.282l-0.564,-0.105c-1.755,-2.035 -10.855,-13.756 -12.46,-14.322c-0.87,1.087 0.686,0.19 -0.751,1.534l-1.125,0.051c1.297,3.054 8.58,10.442 9.391,13.61c-1.832,-1.95 -6.931,-9.332 -8.818,-11.748c-3.3,-4.224 -22.595,-25.391 -25.521,-26.668l-0.362,0.346c1.948,6.214 5.676,17.984 6.401,24.365c-1.184,-0.624 -1.146,-6.477 -2.179,-7.989c-0.566,0.424 -0.572,0.436 -1.224,0.704c-1.465,-0.381 -3.284,-1.469 -4.537,-2.305c-1.549,-1.034 -7.691,-2.508 -9.439,-2.618c-0.153,0.798 0.873,4.255 1.094,5.635l-0.191,0.426c-0.475,-0.951 -3.005,-12.256 -3.654,-14.316c-3.66,-11.62 -6.891,-24.084 -10.885,-35.569Z" style="fill:#1c2582;fill-rule:nonzero;"/><path d="M245.357,60.018c3.462,2.603 7.235,5.232 10.559,7.933c9.564,7.768 17.347,15.848 25.337,25.14c1.146,1.411 4.922,6.008 5.568,7.282l-0.564,-0.105c-1.755,-2.035 -10.855,-13.756 -12.46,-14.322c-0.87,1.087 0.686,0.19 -0.751,1.534l-1.125,0.051c1.297,3.054 8.58,10.442 9.391,13.61c-1.832,-1.95 -6.931,-9.332 -8.818,-11.748c-3.3,-4.224 -22.595,-25.391 -25.521,-26.668l-0.362,0.346c-0.418,-1.002 -0.873,-2.041 -1.254,-3.053Z" style="fill:#189aaa;fill-rule:nonzero;"/><path d="M464.987,72.49l48.108,-12.407c-1.283,7.962 -2.683,15.906 -4.199,23.827c-0.715,-2.258 -0.573,-3.275 -0.561,-5.654c-0.884,-0.89 -3.217,-2.859 -4.435,-3.267c-0.504,-0.169 0.046,0.275 -0.707,-0.431c-1.289,5.904 -2.217,11.861 -3.341,17.786c-0.293,1.541 -1.273,7.283 -1.792,8.631c-0.508,0.349 -0.585,0.839 -0.888,1.507c-0.992,-1.12 -1.695,-2.778 -2.847,-3.793c-5.062,-4.462 -10.036,-8.983 -14.93,-13.631c-2.403,-2.282 -5.013,-4.257 -7.316,-6.652c-1.747,0.293 -3.845,1.062 -5.37,0.767c-14.38,2.955 -29.583,7.762 -44.025,10.882c-2.841,0.7 -7.514,1.985 -10.247,2.412c1.374,-1.788 28.346,-6.272 32.195,-8.43c-0.166,-1.604 -5.922,-0.969 -5.82,-3.719l0.554,-0.24c-2.16,-0.078 -5.147,1.107 -7.236,1.654c-4.995,1.306 -23.584,6.508 -27.484,6.184c-0.125,-0.011 -0.249,-0.024 -0.374,-0.036c5.758,-1.771 13.663,-3.529 19.618,-5.039l41.097,-10.351Z" style="fill:url(#_Linear15);fill-rule:nonzero;"/><path d="M496.186,71.667l7.873,-1.962c-0.277,1.512 -0.662,3.36 -0.866,4.853c-1.289,5.904 -2.217,11.861 -3.341,17.786c-0.293,1.541 -1.273,7.283 -1.792,8.631c-0.508,0.349 -0.585,0.839 -0.888,1.507c-0.992,-1.12 -1.695,-2.778 -2.847,-3.793c-5.062,-4.462 -10.036,-8.983 -14.93,-13.631c-2.403,-2.282 -5.013,-4.257 -7.316,-6.652c-1.747,0.293 -3.845,1.062 -5.37,0.767c8.698,-2.72 20.278,-4.941 29.477,-7.506Z" style="fill:url(#_Linear16);fill-rule:nonzero;"/><path d="M464.987,72.49l48.108,-12.407c-1.283,7.962 -2.683,15.906 -4.199,23.827c-0.715,-2.258 -0.573,-3.275 -0.561,-5.654c-0.884,-0.89 -3.217,-2.859 -4.435,-3.267c-0.504,-0.169 0.046,0.275 -0.707,-0.431c0.204,-1.493 0.589,-3.341 0.866,-4.853l-7.873,1.962c-2.933,-1.673 -3.438,-1.09 -5.793,-3.901l0.373,-0.727c-3.053,-0.477 -22.14,6.121 -25.779,5.451Z" style="fill:url(#_Linear17);fill-rule:nonzero;"/><path d="M368.038,419.895c2.733,-1.693 7.351,-8.32 8.996,-11.167c0.246,4.106 2.044,4.521 5.472,5.529c0.95,0.897 1.816,1.342 1.918,2.352c-1.409,2.176 -5.265,6.46 -7.116,8.577l0.259,0.467c-4.542,5.559 -11.392,11.674 -16.866,16.144c-23.209,18.954 -52.782,30.727 -82.668,32.961c-1.032,0.077 -2.343,0.322 -3.298,-0.021l-0.085,-0.252c26.3,-4.497 49.249,-13.874 69.494,-31.542c4.782,-4.173 8.731,-8.459 13.217,-12.923c2.048,-0.305 8.918,-8.17 10.677,-10.125Z" style="fill:#6b1c75;fill-rule:nonzero;"/><path d="M443.662,219.099c9.054,9.038 18.897,19.441 27.61,28.867l-0.803,0.632c-7.063,-6.977 -14.287,-15.01 -21.401,-21.694c-5.129,8.156 -6.796,12.237 -10.791,20.811c-3.227,8.906 -5.871,16.942 -7.549,26.317c-0.878,4.906 -1.201,9.55 -1.891,14.396l-0.202,-0.51c-0.526,0.274 -0.149,4.685 -0.757,5.999l-0.526,-0.235c-0.291,-0.481 -0.448,-1.335 -0.599,-1.922c-3.339,-0.018 -3.973,-4.437 -7.151,-4.799c-0.62,-2.032 0.686,-4.323 0.016,-6.792c1.602,-13.002 5.327,-29.251 11.692,-40.834c3.411,-7.152 7.55,-13.933 12.352,-20.236Z" style="fill:#aa205c;fill-rule:nonzero;"/><path d="M443.662,219.099c9.054,9.038 18.897,19.441 27.61,28.867l-0.803,0.632c-7.063,-6.977 -14.287,-15.01 -21.401,-21.694c-5.129,8.156 -6.796,12.237 -10.791,20.811l-0.273,-0.512c1.275,-3.342 8.508,-19.488 11.139,-20.44c1.347,0.314 5.764,5.009 6.887,6.252l0.114,-0.241c-1.339,-1.776 -3.604,-3.481 -5.165,-5.139c-2.43,-2.58 -4.848,-5.195 -7.268,-7.786c-4.751,6.445 -8.246,12.416 -11.796,19.525l-0.605,-0.039c3.411,-7.152 7.55,-13.933 12.352,-20.236Z" style="fill:#c5284b;fill-rule:nonzero;"/><path d="M394.234,415.643c0.427,-1.681 7.269,-12.278 8.859,-15.337c7.235,-14.238 12.338,-29.462 15.146,-45.184c1.948,-10.805 3.206,-27.25 2.348,-38.212c-0.991,-12.675 -3.209,-23.329 -1.02,-36.454l0.051,-0.287c0.67,2.469 -0.636,4.76 -0.016,6.792c3.178,0.362 3.812,4.781 7.151,4.799c0.151,0.587 0.308,1.441 0.599,1.922l0.526,0.235c0.608,-1.314 0.231,-5.725 0.757,-5.999l0.202,0.51c-0.744,13.132 0.219,24.885 -0.734,38.028c-1.948,26.882 -9.626,52.595 -24.073,75.449c-2.459,3.889 -6.666,10.407 -9.796,13.738Z" style="fill:#6b1c75;fill-rule:nonzero;"/><path d="M498.06,100.975c0.519,-1.348 1.499,-7.09 1.792,-8.631c1.124,-5.925 2.052,-11.882 3.341,-17.786c0.753,0.706 0.203,0.262 0.707,0.431c1.218,0.408 3.551,2.377 4.435,3.267c-0.012,2.379 -0.154,3.396 0.561,5.654c-1.986,11.226 -4.271,22.54 -6.372,33.762c-1.88,10.043 -3.577,20.665 -5.691,30.634l-0.682,0.206c-0.814,1.948 -3.574,16.891 -4.175,19.949c-0.575,-4.422 4.9,-25.789 5.362,-31.862c0.118,-1.549 1.123,-4.037 1.114,-6.296c-1.873,-0.685 -3.191,-0.879 -4.876,-1.41c-0.648,1.709 -1.321,6.283 -1.696,8.327l-2.813,15.287c-0.529,2.882 -1.102,6.683 -1.92,9.415l-0.405,0.271l7.263,-38.984c1.223,-6.486 3.306,-15.923 4.055,-22.234Z" style="fill:url(#_Linear18);fill-rule:nonzero;"/><path d="M386.657,400.331c0.784,0.113 1.207,0.16 2.019,0.199c1.157,-0.693 1.327,-0.83 2.595,-1.197c0.661,0.337 0.821,1.088 1.237,1.928c0.79,-0.475 0.436,-0.456 1.194,-0.453l-0.075,0.579l0.264,0.084c2.777,-2.511 4.585,-9.686 6.839,-11.459c-5.281,12.002 -14.152,26.026 -23.163,35.641l-0.259,-0.467c1.851,-2.117 5.707,-6.401 7.116,-8.577c-0.102,-1.01 -0.968,-1.455 -1.918,-2.352c-3.428,-1.008 -5.226,-1.423 -5.472,-5.529c-1.645,2.847 -6.263,9.474 -8.996,11.167c1.571,-2.278 4.584,-5.903 6.39,-8.296c4.351,-5.762 7.251,-10.658 10.943,-16.71c-0.155,0.78 -0.644,1.814 -0.963,2.566c0.822,1.235 1.258,1.766 2.249,2.876Z" style="fill:#aa205c;fill-rule:nonzero;"/><path d="M266.411,64.074c1.722,0.974 5.081,4.492 6.615,5.971c10.038,9.67 26.625,29.519 31.799,42.552c-1.644,-1.544 -2.74,-4.562 -3.955,-6.488c-2.016,-3.197 -7.894,-13.638 -10.556,-15.515c-2.285,0.29 -2.95,2.723 -4.577,3.46c-0.753,0.341 -1.366,0.143 -2.01,0.968c0.487,1.063 4.411,6.036 5.367,7.436c2.483,3.636 4.812,7.228 7.036,11.046l-0.379,0.391c-2.598,-3.354 -5.699,-9.219 -8.93,-13.522c-0.646,-1.274 -4.422,-5.871 -5.568,-7.282c-2.205,-7.872 -5.732,-15.21 -10.144,-22.074c-1.466,-2.28 -3.157,-4.456 -4.544,-6.692l-0.154,-0.251Z" style="fill:#6b1c75;fill-rule:nonzero;"/><path d="M491.976,168.461c0.601,-3.058 3.361,-18.001 4.175,-19.949l0.682,-0.206l-12.61,68.627l-4.324,23.995c-0.783,4.367 -1.626,9.991 -2.643,14.23l-6.787,-6.56l0.803,-0.632c1.832,1.812 3.654,3.633 5.466,5.464c0.488,-7.116 3.481,-21.206 4.859,-28.514l6.53,-35.888c1.242,-6.731 2.788,-13.857 3.849,-20.567Z" style="fill:#aa205c;fill-rule:nonzero;"/></g><g transform="matrix(0.575172,0,0,0.575172,224.562,54.3053)"><path d="M958.791,338.057l-183.341,-264.706c-12.69,-18.38 -30.63,-32.821 -57.76,-32.821c-28.004,-0 -45.507,15.317 -58.197,32.821l-187.719,264.706l105.893,0l138.711,-195.562l82.701,119.471l-126.021,-0l-54.259,76.091l339.992,0Z" style="fill:url(#_Linear19);fill-rule:nonzero;"/><path d="M1080.89,121.435l179.424,-0l58.204,-76.091l-328.161,-0l0,292.713l90.533,0l-0,-105.029l164.545,0l56.453,-72.153l-220.998,0l-0,-39.44Z" style="fill:url(#_Linear20);fill-rule:nonzero;"/><path d="M1529.88,338.057l0,-216.622l92.338,-0l59.516,-76.091l-327.285,-0l-59.516,76.091l144.852,-0l0,216.622l90.095,0Z" style="fill:url(#_Linear21);fill-rule:nonzero;"/><path d="M1802.09,121.435l189.927,-0l58.641,-76.091l-339.101,-0l0,292.713l281.773,0l57.766,-76.091l-249.006,-0l0,-38.128l178.987,0l52.514,-64.713l-231.501,0l0,-37.69Z" style="fill:url(#_Linear22);fill-rule:nonzero;"/><path d="M2479.08,152.094c-0,-66.955 -55.545,-106.75 -147.437,-106.75l-189.951,-0l-60.354,76.091l259.06,-0c32.83,-0 48.149,10.511 48.149,34.163c0,21.899 -14.444,31.535 -47.711,31.535l-259.498,-0l-0,150.924l90.095,0l-0,-77.896l132.633,-0l73.539,77.896l119.417,0l-88.357,-90.141c44.61,-17.054 70.415,-50.288 70.415,-95.822Z" style="fill:url(#_Linear23);fill-rule:nonzero;"/><path d="M958.791,345.445l6.073,-11.594l-183.341,-264.706c-13.994,-20.27 -33.901,-36.003 -63.833,-36.003c-30.817,0 -50.214,16.611 -64.178,35.873c-0.045,0.063 -187.764,264.769 -187.764,264.769l6.026,11.661l105.893,-0l6.026,-3.114l132.611,-186.962c-0,-0 68.676,99.209 68.676,99.209c-0,0 -111.922,0 -111.922,0l-6.015,3.099l-54.259,76.091l6.015,11.677l339.992,-0Zm-0,-7.388l-183.341,-264.706c-12.69,-18.38 -30.63,-32.821 -57.76,-32.821c-28.004,-0 -45.507,15.317 -58.197,32.821l-187.719,264.706l105.893,0l138.711,-195.562l82.701,119.471l-126.021,-0l-54.259,76.091l339.992,0Z" style="fill:#4c5356;"/><path d="M1088.27,128.823l172.037,-0l5.868,-2.9l58.203,-76.091l-5.867,-11.876l-328.161,0l-7.388,7.388l0,292.713l7.388,7.388l90.533,-0l7.387,-7.388l0,-97.641c0,-0 157.158,-0 157.158,-0l5.818,-2.835l56.453,-72.153l-5.818,-11.94l-213.611,-0l0,-24.665Zm-7.387,-7.388l179.424,-0l58.204,-76.091l-328.161,-0l0,292.713l90.533,0l-0,-105.029l164.545,0l56.453,-72.153l-220.998,0l-0,-39.44Z" style="fill:#4c5356;"/><path d="M1529.88,345.445l7.388,-7.388l-0,-209.234c-0,-0 84.95,-0 84.95,-0l5.819,-2.837l59.517,-76.091l-5.82,-11.939l-327.285,0l-5.819,2.836l-59.516,76.091l5.819,11.94l137.464,-0c0,-0 0,209.234 0,209.234l7.388,7.388l90.095,-0Zm0,-7.388l0,-216.622l92.338,-0l59.516,-76.091l-327.285,-0l-59.516,76.091l144.852,-0l0,216.622l90.095,0Z" style="fill:#4c5356;"/><path d="M1809.47,128.823l182.539,-0l5.852,-2.878l58.641,-76.092l-5.852,-11.897l-339.101,0l-7.387,7.388l-0,292.713l7.387,7.388l281.773,-0l5.884,-2.921l57.766,-76.091l-5.884,-11.855l-241.618,0c-0,0 -0,-23.352 -0,-23.352c-0,-0 171.599,-0 171.599,-0l5.736,-2.733l52.515,-64.713l-5.737,-12.043l-224.113,0l-0,-22.914Zm-7.388,-7.388l189.927,-0l58.641,-76.091l-339.101,-0l0,292.713l281.773,0l57.766,-76.091l-249.006,-0l0,-38.128l178.987,0l52.514,-64.713l-231.501,0l0,-37.69Z" style="fill:#4c5356;"/><path d="M2486.47,152.094c0,-70.753 -57.72,-114.138 -154.824,-114.138c0,0 -189.951,0 -189.951,0l-5.788,2.797l-60.354,76.091l5.788,11.979l259.06,-0c16.979,-0 28.725,2.549 35.245,9.562c3.883,4.177 5.516,9.927 5.516,17.213c0,5.016 -0.853,9.222 -2.928,12.607c-2.348,3.829 -6.244,6.454 -11.589,8.285c-6.603,2.262 -15.156,3.255 -25.806,3.255l-259.498,0l-7.388,7.388l-0,150.924l7.388,7.388l90.095,-0l7.387,-7.388l0,-70.509c0,0 122.061,0 122.061,0c-0,0 71.352,75.58 71.352,75.58l5.372,2.317l119.417,-0l5.276,-12.559l-80.762,-82.393c41.414,-19.274 64.931,-53.255 64.931,-98.399Zm-7.387,-0c-0,-66.955 -55.545,-106.75 -147.437,-106.75l-189.951,-0l-60.354,76.091l259.06,-0c32.83,-0 48.149,10.511 48.149,34.163c0,21.899 -14.444,31.535 -47.711,31.535l-259.498,-0l-0,150.924l90.095,0l-0,-77.896l132.633,-0l73.539,77.896l119.417,0l-88.357,-90.141c44.61,-17.054 70.415,-50.288 70.415,-95.822Z" style="fill:#4c5356;"/><path d="M751.404,654.352c80.063,0 119.425,-27.55 119.425,-83.98c-0,-28.047 -13.121,-51.664 -35.426,-65.219c18.366,-13.555 29.299,-35.869 29.299,-63.04c0,-50.737 -41.985,-80.474 -115.049,-80.474l-193.019,-0l-62.104,76.091l260.376,0c15.759,0 24.077,6.574 24.077,18.407c0,12.709 -8.318,19.283 -24.515,19.283l-259.938,0l0,178.932l256.874,0Zm3.064,-114.656c17.072,-0 25.828,6.573 25.828,19.72c0,12.271 -8.318,18.845 -25.39,18.845l-169.843,-0l-0,-38.565l169.405,-0Z" style="fill:url(#_Linear24);fill-rule:nonzero;"/><path d="M1205.66,526.622c0,41.574 -25.825,56.453 -100.679,56.453c-75.729,-0 -102.431,-14.879 -102.431,-56.453l-0,-164.983l-90.533,-0l-0,164.983c-0,91.874 59.917,132.544 192.964,132.544c131.731,-0 190.774,-41.107 190.774,-132.544l0,-164.983l-90.095,-0l0,164.983Z" style="fill:url(#_Linear25);fill-rule:nonzero;"/><path d="M1744.32,468.389c0,-66.955 -55.544,-106.75 -147.436,-106.75l-189.951,-0l-60.355,76.091l259.06,0c32.83,0 48.149,10.511 48.149,34.163c0,21.899 -14.443,31.535 -47.711,31.535l-259.498,-0l0,150.924l90.095,0l0,-77.896l132.633,-0l73.54,77.896l119.417,0l-88.357,-90.141c44.61,-17.054 70.414,-50.288 70.414,-95.822Z" style="fill:url(#_Linear26);fill-rule:nonzero;"/><path d="M1793.83,654.352l87.032,0l-0,-170.203l174.664,159.266c12.246,11.376 22.742,16.189 36.3,16.189c30.614,-0 49.42,-21.44 49.42,-55.131l-0,-242.834l-86.594,-0l-0,170.64l-175.539,-160.14c-11.809,-10.939 -22.305,-15.314 -35.863,-15.314c-30.614,-0 -49.42,21.002 -49.42,55.13l0,242.397Z" style="fill:url(#_Linear27);fill-rule:nonzero;"/><path d="M2285.22,437.73l189.927,0l58.641,-76.091l-339.101,-0l0,292.713l281.773,0l57.766,-76.091l-249.006,-0l-0,-38.128l178.987,0l52.514,-64.713l-231.501,0l-0,-37.69Z" style="fill:url(#_Linear28);fill-rule:nonzero;"/><path d="M2962.22,468.389c-0,-66.955 -55.545,-106.75 -147.437,-106.75l-189.951,-0l-60.355,76.091l259.061,0c32.83,0 48.149,10.511 48.149,34.163c-0,21.899 -14.444,31.535 -47.711,31.535l-259.499,-0l0,150.924l90.096,0l-0,-77.896l132.633,-0l73.539,77.896l119.417,0l-88.357,-90.141c44.61,-17.054 70.415,-50.288 70.415,-95.822Z" style="fill:url(#_Linear29);fill-rule:nonzero;"/><path d="M751.404,661.74c50.699,-0 85.738,-11.116 105.814,-32.354c13.892,-14.696 20.999,-34.287 20.999,-59.014c-0,-27.143 -11.27,-50.467 -30.718,-65.803c15.482,-15.003 24.591,-36.704 24.591,-62.456c-0,-54.459 -44.013,-87.862 -122.437,-87.862c0,0 -193.019,0 -193.019,0l-5.723,2.716l-62.104,76.092l5.723,12.059l260.376,-0c6.765,-0 11.794,1.12 14.591,4.304c1.497,1.704 2.099,3.994 2.099,6.715c-0,3.075 -0.608,5.617 -2.202,7.488c-2.831,3.325 -7.96,4.407 -14.926,4.407c0,0 -259.938,0 -259.938,0l-7.387,7.388l-0,178.932l7.387,7.388l256.874,-0Zm0,-7.388c80.063,0 119.425,-27.55 119.425,-83.98c-0,-28.047 -13.121,-51.664 -35.426,-65.219c18.366,-13.555 29.299,-35.869 29.299,-63.04c0,-50.737 -41.985,-80.474 -115.049,-80.474l-193.019,-0l-62.104,76.091l260.376,0c15.759,0 24.077,6.574 24.077,18.407c0,12.709 -8.318,19.283 -24.515,19.283l-259.938,0l0,178.932l256.874,0Zm3.064,-114.656c17.072,-0 25.828,6.573 25.828,19.72c0,12.271 -8.318,18.845 -25.39,18.845l-169.843,-0l-0,-38.565l169.405,-0Zm0,7.387c7.528,0 13.047,1.111 16.105,4.59c1.688,1.919 2.336,4.544 2.336,7.743c-0,2.866 -0.587,5.261 -2.158,7.029c-2.955,3.329 -8.341,4.428 -15.845,4.428l-162.455,0c-0,0 -0,-23.79 -0,-23.79c-0,0 162.017,0 162.017,0Z" style="fill:#4c5356;"/><path d="M1198.28,526.622c-0,10.789 -1.813,19.548 -6.376,26.456c-5.298,8.019 -14.224,13.322 -27.292,16.896c-14.699,4.02 -34.257,5.713 -59.624,5.713c-22.106,0 -39.921,-1.267 -54.026,-4.183c-14.951,-3.092 -25.461,-7.886 -32.09,-15.415c-6.415,-7.285 -8.928,-17.022 -8.928,-29.467c0,-0 0,-164.983 0,-164.983l-7.387,-7.388l-90.533,0l-7.388,7.388l0,164.983c0,38.955 10.421,69.137 31.642,91.438c31.05,32.631 86.166,48.494 168.71,48.494c81.777,-0 136.269,-16.036 166.947,-48.72c20.947,-22.317 31.215,-52.454 31.215,-91.212c0,-0 0,-164.983 0,-164.983l-7.388,-7.388l-90.095,0l-7.387,7.388l-0,164.983Zm7.387,-0c0,41.574 -25.825,56.453 -100.679,56.453c-75.729,-0 -102.431,-14.879 -102.431,-56.453l-0,-164.983l-90.533,-0l-0,164.983c-0,91.874 59.917,132.544 192.964,132.544c131.731,-0 190.774,-41.107 190.774,-132.544l0,-164.983l-90.095,-0l0,164.983Z" style="fill:#4c5356;"/><path d="M1751.71,468.389c-0,-70.753 -57.721,-114.138 -154.824,-114.138c-0,0 -189.951,0 -189.951,0l-5.788,2.797l-60.355,76.091l5.788,11.979l259.06,-0c16.979,-0 28.726,2.549 35.245,9.562c3.883,4.177 5.517,9.927 5.517,17.213c-0,5.016 -0.853,9.222 -2.929,12.607c-2.347,3.83 -6.243,6.454 -11.588,8.285c-6.604,2.263 -15.156,3.255 -25.807,3.255l-259.498,0l-7.388,7.388l0,150.924l7.388,7.388l90.095,-0l7.388,-7.388l-0,-70.509c-0,0 122.06,0 122.06,0c0,0 71.353,75.581 71.353,75.581l5.372,2.316l119.417,-0l5.275,-12.559l-80.761,-82.393c41.414,-19.274 64.931,-53.255 64.931,-98.399Zm-7.388,-0c0,-66.955 -55.544,-106.75 -147.436,-106.75l-189.951,-0l-60.355,76.091l259.06,0c32.83,0 48.149,10.511 48.149,34.163c0,21.899 -14.443,31.535 -47.711,31.535l-259.498,-0l0,150.924l90.095,0l0,-77.896l132.633,-0l73.54,77.896l119.417,0l-88.357,-90.141c44.61,-17.054 70.414,-50.288 70.414,-95.822Z" style="fill:#4c5356;"/><path d="M1786.44,654.352l7.388,7.388l87.032,-0l7.387,-7.388l0,-153.469c0,0 162.277,147.97 162.277,147.97c13.897,12.902 25.912,18.138 41.3,18.138c17.67,0 31.862,-6.355 41.706,-17.404c9.587,-10.759 15.102,-26.177 15.102,-45.114c-0,0 -0,-242.834 -0,-242.834l-7.388,-7.388l-86.594,0l-7.388,7.388l0,153.901c0,-0 -163.155,-148.843 -163.155,-148.843c-13.431,-12.434 -25.436,-17.26 -40.859,-17.26c-17.666,0 -31.85,6.242 -41.692,17.224c-9.587,10.698 -15.116,26.111 -15.116,45.294l0,242.397Zm7.388,0l87.032,0l-0,-170.203l174.664,159.266c12.246,11.376 22.742,16.189 36.3,16.189c30.614,-0 49.42,-21.44 49.42,-55.131l-0,-242.834l-86.594,-0l-0,170.64l-175.539,-160.14c-11.809,-10.939 -22.305,-15.314 -35.863,-15.314c-30.614,-0 -49.42,21.002 -49.42,55.13l0,242.397Z" style="fill:#4c5356;"/><path d="M2292.61,445.118l182.539,-0l5.852,-2.878l58.641,-76.092l-5.852,-11.897l-339.101,0l-7.387,7.388l-0,292.713l7.387,7.388l281.773,-0l5.884,-2.921l57.766,-76.091l-5.884,-11.855l-241.618,0c-0,0 -0,-23.352 -0,-23.352c-0,-0 171.599,-0 171.599,-0l5.736,-2.733l52.515,-64.713l-5.737,-12.043l-224.113,0l-0,-22.914Zm-7.388,-7.388l189.927,0l58.641,-76.091l-339.101,-0l0,292.713l281.773,0l57.766,-76.091l-249.006,-0l-0,-38.128l178.987,0l52.514,-64.713l-231.501,0l-0,-37.69Z" style="fill:#4c5356;"/><path d="M2969.6,468.389c0,-70.753 -57.72,-114.138 -154.824,-114.138c0,0 -189.951,0 -189.951,0l-5.788,2.797l-60.355,76.091l5.788,11.979l259.061,-0c16.979,-0 28.725,2.549 35.245,9.562c3.883,4.177 5.516,9.927 5.516,17.213c0,5.016 -0.853,9.222 -2.928,12.607c-2.348,3.83 -6.244,6.454 -11.589,8.285c-6.604,2.263 -15.156,3.255 -25.806,3.255l-259.499,0l-7.387,7.388l-0,150.924l7.387,7.388l90.096,-0l7.387,-7.388l0,-70.509c0,0 122.061,0 122.061,0c-0,0 71.352,75.581 71.352,75.581l5.372,2.316l119.417,-0l5.276,-12.559l-80.762,-82.393c41.414,-19.274 64.931,-53.255 64.931,-98.399Zm-7.387,-0c-0,-66.955 -55.545,-106.75 -147.437,-106.75l-189.951,-0l-60.355,76.091l259.061,0c32.83,0 48.149,10.511 48.149,34.163c-0,21.899 -14.444,31.535 -47.711,31.535l-259.499,-0l0,150.924l90.096,0l-0,-77.896l132.633,-0l73.539,77.896l119.417,0l-88.357,-90.141c44.61,-17.054 70.415,-50.288 70.415,-95.822Z" style="fill:#4c5356;"/></g><defs><linearGradient id="_Linear1" x1="0" y1="0" x2="1" y2="0" gradientUnits="userSpaceOnUse" gradientTransform="matrix(43.0074,-47.4909,47.4909,43.0074,269.827,325.473)"><stop offset="0" style="stop-color:#89ce4f;stop-opacity:1"/><stop offset="1" style="stop-color:#cdeb96;stop-opacity:1"/></linearGradient><linearGradient id="_Linear2" x1="0" y1="0" x2="1" y2="0" gradientUnits="userSpaceOnUse" gradientTransform="matrix(-99.4769,109.118,-109.118,-99.4769,320.588,378.877)"><stop offset="0" style="stop-color:#58c74d;stop-opacity:1"/><stop offset="1" style="stop-color:#009158;stop-opacity:1"/></linearGradient><linearGradient id="_Linear3" x1="0" y1="0" x2="1" y2="0" gradientUnits="userSpaceOnUse" gradientTransform="matrix(16.4903,-68.8075,68.8075,16.4903,280.414,482.706)"><stop offset="0" style="stop-color:#006a42;stop-opacity:1"/><stop offset="1" style="stop-color:#148b4b;stop-opacity:1"/></linearGradient><linearGradient id="_Linear4" x1="0" y1="0" x2="1" y2="0" gradientUnits="userSpaceOnUse" gradientTransform="matrix(-78.1434,71.5209,-71.5209,-78.1434,312.316,214.852)"><stop offset="0" style="stop-color:#b0e53c;stop-opacity:1"/><stop offset="1" style="stop-color:#61c64f;stop-opacity:1"/></linearGradient><linearGradient id="_Linear5" x1="0" y1="0" x2="1" y2="0" gradientUnits="userSpaceOnUse" gradientTransform="matrix(54.6657,-39.9596,39.9596,54.6657,324.909,272.744)"><stop offset="0" style="stop-color:#a8df4c;stop-opacity:1"/><stop offset="1" style="stop-color:#e1f9b9;stop-opacity:1"/></linearGradient><linearGradient id="_Linear6" x1="0" y1="0" x2="1" y2="0" gradientUnits="userSpaceOnUse" gradientTransform="matrix(78.4097,65.2615,-65.2615,78.4097,216.87,99.799)"><stop offset="0" style="stop-color:#1297a7;stop-opacity:1"/><stop offset="1" style="stop-color:#5ae4e9;stop-opacity:1"/></linearGradient><linearGradient id="_Linear7" x1="0" y1="0" x2="1" y2="0" gradientUnits="userSpaceOnUse" gradientTransform="matrix(70.454,5.20011,-5.20011,70.454,120.481,244.373)"><stop offset="0" style="stop-color:#4d82ba;stop-opacity:1"/><stop offset="1" style="stop-color:#68c8db;stop-opacity:1"/></linearGradient><linearGradient id="_Linear8" x1="0" y1="0" x2="1" y2="0" gradientUnits="userSpaceOnUse" gradientTransform="matrix(13.2452,42.9323,-42.9323,13.2452,210.407,180.135)"><stop offset="0" style="stop-color:#4cc8d2;stop-opacity:1"/><stop offset="1" style="stop-color:#7ff6f6;stop-opacity:1"/></linearGradient><linearGradient id="_Linear9" x1="0" y1="0" x2="1" y2="0" gradientUnits="userSpaceOnUse" gradientTransform="matrix(137.442,-42.4514,42.4514,137.442,90.6241,303.067)"><stop offset="0" style="stop-color:#1c2686;stop-opacity:1"/><stop offset="1" style="stop-color:#1c9bb9;stop-opacity:1"/></linearGradient><linearGradient id="_Linear10" x1="0" y1="0" x2="1" y2="0" gradientUnits="userSpaceOnUse" gradientTransform="matrix(26.2481,208.97,-208.97,26.2481,413.211,186.718)"><stop offset="0" style="stop-color:#f95f29;stop-opacity:1"/><stop offset="1" style="stop-color:#b30f4e;stop-opacity:1"/></linearGradient><linearGradient id="_Linear11" x1="0" y1="0" x2="1" y2="0" gradientUnits="userSpaceOnUse" gradientTransform="matrix(-41.0038,41.0223,-41.0223,-41.0038,492.439,163.188)"><stop offset="0" style="stop-color:#fdab1e;stop-opacity:1"/><stop offset="1" style="stop-color:#f3762c;stop-opacity:1"/></linearGradient><linearGradient id="_Linear12" x1="0" y1="0" x2="1" y2="0" gradientUnits="userSpaceOnUse" gradientTransform="matrix(42.2098,-35.249,35.249,42.2098,451.951,133.962)"><stop offset="0" style="stop-color:#fdc155;stop-opacity:1"/><stop offset="1" style="stop-color:#fdebc5;stop-opacity:1"/></linearGradient><linearGradient id="_Linear13" x1="0" y1="0" x2="1" y2="0" gradientUnits="userSpaceOnUse" gradientTransform="matrix(18.2681,34.4825,-34.4825,18.2681,208.589,163.561)"><stop offset="0" style="stop-color:#1c8fb7;stop-opacity:1"/><stop offset="1" style="stop-color:#22e7e3;stop-opacity:1"/></linearGradient><linearGradient id="_Linear14" x1="0" y1="0" x2="1" y2="0" gradientUnits="userSpaceOnUse" gradientTransform="matrix(-36.2292,41.3707,-41.3707,-36.2292,261.775,288.675)"><stop offset="0" style="stop-color:#92d83d;stop-opacity:1"/><stop offset="1" style="stop-color:#4bbb53;stop-opacity:1"/></linearGradient><linearGradient id="_Linear15" x1="0" y1="0" x2="1" y2="0" gradientUnits="userSpaceOnUse" gradientTransform="matrix(-24.8944,33.4473,-33.4473,-24.8944,479.206,59.2449)"><stop offset="0" style="stop-color:#dd9f3b;stop-opacity:1"/><stop offset="1" style="stop-color:#8d6e4b;stop-opacity:1"/></linearGradient><linearGradient id="_Linear16" x1="0" y1="0" x2="1" y2="0" gradientUnits="userSpaceOnUse" gradientTransform="matrix(18.7893,-20.6622,20.6622,18.7893,484.155,90.7859)"><stop offset="0" style="stop-color:#fceac1;stop-opacity:1"/><stop offset="1" style="stop-color:#feffff;stop-opacity:1"/></linearGradient><linearGradient id="_Linear17" x1="0" y1="0" x2="1" y2="0" gradientUnits="userSpaceOnUse" gradientTransform="matrix(-7.09027,15.47,-15.47,-7.09027,505.851,58.1202)"><stop offset="0" style="stop-color:#ffb921;stop-opacity:1"/><stop offset="1" style="stop-color:#e39b35;stop-opacity:1"/></linearGradient><linearGradient id="_Linear18" x1="0" y1="0" x2="1" y2="0" gradientUnits="userSpaceOnUse" gradientTransform="matrix(-31.0525,36.7917,-36.7917,-31.0525,516.056,84.5687)"><stop offset="0" style="stop-color:#db9d3b;stop-opacity:1"/><stop offset="1" style="stop-color:#8d6a4c;stop-opacity:1"/></linearGradient><linearGradient id="_Linear19" x1="0" y1="0" x2="1" y2="0" gradientUnits="userSpaceOnUse" gradientTransform="matrix(2035.37,0,0,404.361,466.933,247.497)"><stop offset="0" style="stop-color:#0a4b7a;stop-opacity:1"/><stop offset="0.75" style="stop-color:#2ebf5a;stop-opacity:1"/><stop offset="1" style="stop-color:#38b454;stop-opacity:1"/></linearGradient><linearGradient id="_Linear20" x1="0" y1="0" x2="1" y2="0" gradientUnits="userSpaceOnUse" gradientTransform="matrix(2035.37,0,0,404.361,466.933,247.497)"><stop offset="0" style="stop-color:#0a4b7a;stop-opacity:1"/><stop offset="0.75" style="stop-color:#2ebf5a;stop-opacity:1"/><stop offset="1" style="stop-color:#38b454;stop-opacity:1"/></linearGradient><linearGradient id="_Linear21" x1="0" y1="0" x2="1" y2="0" gradientUnits="userSpaceOnUse" gradientTransform="matrix(2035.37,0,0,404.361,466.933,247.497)"><stop offset="0" style="stop-color:#0a4b7a;stop-opacity:1"/><stop offset="0.75" style="stop-color:#2ebf5a;stop-opacity:1"/><stop offset="1" style="stop-color:#38b454;stop-opacity:1"/></linearGradient><linearGradient id="_Linear22" x1="0" y1="0" x2="1" y2="0" gradientUnits="userSpaceOnUse" gradientTransform="matrix(2035.37,0,0,404.361,466.933,247.497)"><stop offset="0" style="stop-color:#0a4b7a;stop-opacity:1"/><stop offset="0.75" style="stop-color:#2ebf5a;stop-opacity:1"/><stop offset="1" style="stop-color:#38b454;stop-opacity:1"/></linearGradient><linearGradient id="_Linear23" x1="0" y1="0" x2="1" y2="0" gradientUnits="userSpaceOnUse" gradientTransform="matrix(2035.37,0,0,404.361,466.933,247.497)"><stop offset="0" style="stop-color:#0a4b7a;stop-opacity:1"/><stop offset="0.75" style="stop-color:#2ebf5a;stop-opacity:1"/><stop offset="1" style="stop-color:#38b454;stop-opacity:1"/></linearGradient><linearGradient id="_Linear24" x1="0" y1="0" x2="1" y2="0" gradientUnits="userSpaceOnUse" gradientTransform="matrix(2518.51,0,0,404.361,466.933,563.792)"><stop offset="0" style="stop-color:#f16f31;stop-opacity:1"/><stop offset="0.75" style="stop-color:#f7cb1a;stop-opacity:1"/><stop offset="1" style="stop-color:#fad036;stop-opacity:1"/></linearGradient><linearGradient id="_Linear25" x1="0" y1="0" x2="1" y2="0" gradientUnits="userSpaceOnUse" gradientTransform="matrix(2518.51,0,0,404.361,466.933,563.792)"><stop offset="0" style="stop-color:#f16f31;stop-opacity:1"/><stop offset="0.75" style="stop-color:#f7cb1a;stop-opacity:1"/><stop offset="1" style="stop-color:#fad036;stop-opacity:1"/></linearGradient><linearGradient id="_Linear26" x1="0" y1="0" x2="1" y2="0" gradientUnits="userSpaceOnUse" gradientTransform="matrix(2518.51,0,0,404.361,466.933,563.792)"><stop offset="0" style="stop-color:#f16f31;stop-opacity:1"/><stop offset="0.75" style="stop-color:#f7cb1a;stop-opacity:1"/><stop offset="1" style="stop-color:#fad036;stop-opacity:1"/></linearGradient><linearGradient id="_Linear27" x1="0" y1="0" x2="1" y2="0" gradientUnits="userSpaceOnUse" gradientTransform="matrix(2518.51,0,0,404.361,466.933,563.792)"><stop offset="0" style="stop-color:#f16f31;stop-opacity:1"/><stop offset="0.75" style="stop-color:#f7cb1a;stop-opacity:1"/><stop offset="1" style="stop-color:#fad036;stop-opacity:1"/></linearGradient><linearGradient id="_Linear28" x1="0" y1="0" x2="1" y2="0" gradientUnits="userSpaceOnUse" gradientTransform="matrix(2518.51,0,0,404.361,466.933,563.792)"><stop offset="0" style="stop-color:#f16f31;stop-opacity:1"/><stop offset="0.75" style="stop-color:#f7cb1a;stop-opacity:1"/><stop offset="1" style="stop-color:#fad036;stop-opacity:1"/></linearGradient><linearGradient id="_Linear29" x1="0" y1="0" x2="1" y2="0" gradientUnits="userSpaceOnUse" gradientTransform="matrix(2518.51,0,0,404.361,466.933,563.792)"><stop offset="0" style="stop-color:#f16f31;stop-opacity:1"/><stop offset="0.75" style="stop-color:#f7cb1a;stop-opacity:1"/><stop offset="1" style="stop-color:#fad036;stop-opacity:1"/></linearGradient></defs></svg>