<?xml version="1.0" encoding="UTF-8" standalone="no"?><!DOCTYPE svg PUBLIC "-//W3C//DTD SVG 1.1//EN" "http://www.w3.org/Graphics/SVG/1.1/DTD/svg11.dtd"><svg width="100%" height="100%" viewBox="0 0 1024 1024" version="1.1" xmlns="http://www.w3.org/2000/svg" xmlns:xlink="http://www.w3.org/1999/xlink" xml:space="preserve" xmlns:serif="http://www.serif.com/" style="fill-rule:evenodd;clip-rule:evenodd;stroke-linejoin:round;stroke-miterlimit:2;"><path d="M352.07,103.106c9.217,4.522 18.583,10.987 27.499,16.355c76.865,46.278 148.312,110.822 169.88,201.342c2.728,11.449 4.584,23.442 4.951,35.074c25.683,-13.731 42.74,-25.2 64.953,-44.174c-6.307,-5.972 -14.485,-12.591 -21.169,-18.254l-38.101,-31.973c31.625,-7.526 63.073,-15.949 94.644,-23.66c12.818,-3.131 26.68,-6.978 39.493,-9.729c10.144,-3.12 24.071,-6.217 34.561,-8.877l72.403,-18.235l84.753,-21.859c-2.26,14.028 -4.726,28.022 -7.397,41.977c-3.498,19.779 -7.525,39.711 -11.226,59.482c-3.312,17.693 -6.301,36.406 -10.025,53.969l-22.217,120.903l-7.618,42.273c-1.378,7.693 -2.864,17.601 -4.656,25.069l-11.957,-11.557c-12.442,-12.291 -25.17,-26.444 -37.703,-38.219c-9.036,14.368 -11.973,21.558 -19.011,36.663c-5.684,15.691 -10.342,29.847 -13.298,46.364c-1.547,8.643 -2.116,16.824 -3.333,25.362c-1.31,23.135 0.387,43.841 -1.292,66.996c-3.433,47.358 -16.959,92.658 -42.411,132.921c-4.331,6.852 -11.744,18.335 -17.257,24.203c-1.759,3.406 -13.807,16.618 -16.896,20.206c-42.264,49.396 -100.722,82.146 -164.918,92.392c-77.668,11.787 -156.844,-7.656 -220.218,-54.078c21.693,-20.132 46.512,-41.194 68.843,-60.904l111.056,-98.222c4.046,-23.374 9.425,-53.787 14.704,-76.831c-29.291,10.039 -58.681,19.791 -88.163,29.255c-3.309,3.975 -10.082,14.637 -13.243,19.282l-27.342,40.212l-89.101,131.908c-42.436,-35.173 -74.542,-85.672 -90.103,-138.388c-23.528,-79.326 -13.092,-164.857 28.821,-236.197c6.724,-11.676 13.893,-21.507 21.7,-32.503l26.187,-36.777c17.73,-24.908 40.204,-54.296 49.94,-83.229c5.693,-16.916 5.243,-33.732 2.586,-51.13c8.268,6.124 17.4,15.953 23.681,23.995c23.248,29.765 26.992,59.609 32.889,95.027c10.801,-13.127 20.012,-27.484 27.441,-42.774c28.46,-58.771 20.337,-107.662 2.509,-167.598c-7.697,-25.541 -15.979,-50.902 -24.839,-76.062Zm337.002,188.347l120.079,-30.218l-16.018,81.874c-2.636,13.454 -5.402,29.838 -8.59,42.976c-7.714,-8.551 -15.992,-16.852 -23.886,-25.29c-47.235,51.067 -82.42,94.595 -98.173,164.192c-5.545,24.61 -7.867,49.837 -6.905,75.046c0.828,20.888 4.596,41.578 5.109,61.665c1.271,49.771 -18.934,99.104 -52.51,135.559c-37.565,41.456 -90.243,66.037 -146.145,68.195c-24.001,0.923 -39.281,-1.615 -62.339,-6.856c14.451,-6.232 31.037,-12.269 45.838,-18.071l87.235,-34.255c17.182,-6.685 36.081,-13.577 52.99,-20.627l45.765,-240.352l16.161,-85.325c2.481,-13.051 6.018,-28.912 7.97,-41.813l-379.883,125.696l-26.726,111.327c-4.338,17.728 -8.506,37.03 -13.329,54.444c-1.285,6.373 -3.333,13.75 -4.785,20.371c-3.783,-5.427 -6.659,-12.691 -9.181,-18.865c-12.357,-30.006 -18.236,-62.283 -17.253,-94.718c0.207,-5.846 0.649,-14.314 1.775,-20.016c0.404,-7.371 3.397,-20.678 5.094,-27.971c12.195,-52.44 41.853,-92.287 75.979,-132.669c0.953,5.809 2.238,11.61 3.447,17.375c3.185,17.812 6.622,35.579 10.31,53.295c17.036,-10.099 30.872,-17.529 46.985,-29.45c47.037,-34.798 82.006,-82.769 96.472,-139.82c6.872,-27.106 8.304,-48.15 7.246,-75.675c27.248,32.199 45.897,76.885 42.436,119.547c-2.205,27.191 -10.223,44.745 -23.566,67.464c76.62,-13.969 130.526,-37.977 190.854,-87.855c17.689,-14.604 34.532,-30.203 50.447,-46.721c-6.295,-7.778 -15.843,-15.148 -22.903,-22.459Zm-112.499,216.045l0.928,0.202c0.663,2.744 -40.41,210.878 -44.893,234.518c-7.583,3.453 -18.671,7.418 -26.672,10.559l-32.833,13.259c10.078,-10.405 26.36,-24.171 37.516,-34.038c1.503,-5.858 2.967,-15.624 4.089,-21.78l7.703,-42.514l22.8,-126.381l-38.787,13.165l-116.518,39.358c-15.884,5.265 -32.191,10.917 -48.165,15.743c-10.756,15.762 -21.638,31.436 -32.646,47.022c3.544,-13.839 6.928,-27.719 10.151,-41.637c1.791,-7.491 4.335,-16.455 5.713,-23.882c7.974,-3.075 18.963,-6.342 27.283,-9.081l50.877,-16.81c57.916,-18.938 115.735,-38.173 173.454,-57.703Z" style="fill:#4c5356;"/><g><path d="M483.226,613.408c2.849,4.49 7.19,8.319 9.743,12.663c11.477,19.528 10.858,43.993 11.195,65.935c0.003,0.196 1.014,0.244 1.406,1.23c-0.626,2.467 -1.16,3.765 -0.806,6.291l0.525,0.072c-1.358,8.116 -3.145,18.549 -5.025,26.62c-2.106,1.943 -10.51,9.885 -12.428,10.969c-3.526,1.173 -26.126,22.365 -30.473,26.302c-4.975,-4.876 -10.612,-7.831 -15.212,-13.321c-3.71,-4.428 -2.968,-6.683 -5.466,-10.772c-1.229,-2.011 -0.056,1.287 -0.878,-1.431c2.276,-4.037 24.539,-20.618 28.633,-26.033c1.443,-1.908 1.26,-2.772 0.909,-4.991c0.185,-3.402 4.409,-23.173 5.353,-27.978c4.245,-21.625 7.924,-44.064 12.524,-65.556Z" style="fill:#5ec34c;fill-rule:nonzero;"/><path d="M409.581,599.192c33.872,-12.281 68.635,-22.879 102.632,-34.876c6.173,-2.179 12.569,-4.343 18.804,-6.342l-19.051,104.571c-2.244,12.207 -4.159,24.959 -6.677,37.054l-0.525,-0.072c-0.354,-2.526 0.18,-3.824 0.806,-6.291c-0.392,-0.986 -1.403,-1.034 -1.406,-1.23c-0.337,-21.942 0.282,-46.407 -11.195,-65.935c-2.553,-4.344 -6.894,-8.173 -9.743,-12.663l-0.009,-1.146c-1.414,-0.647 -1.64,-0.138 -3.641,0.525c-24.512,-23.878 -65.353,-10.436 -69.995,-13.595Z" style="fill:url(#_Linear1);fill-rule:nonzero;"/><path d="M465.349,706.942c0.351,2.219 0.534,3.083 -0.909,4.991c-4.094,5.415 -26.357,21.996 -28.633,26.033c0.822,2.718 -0.351,-0.58 0.878,1.431c2.498,4.089 1.756,6.344 5.466,10.772c4.6,5.49 10.237,8.445 15.212,13.321c4.347,-3.937 26.947,-25.129 30.473,-26.302c-3.344,3.423 -6.957,6.489 -10.488,9.707c-18.188,16.572 -37.245,32.9 -53.917,50.996l115.388,-46.17c-0.29,1.359 -0.872,3.38 0.106,4.48c5.369,6.041 18.497,4.441 18.54,16.245c0.012,3.159 -3.635,8.231 -1.183,11.081l0.648,1.332c-15.784,6.649 -32.919,12.991 -48.934,19.301l-89.851,35.443c-16.679,6.546 -33.823,12.973 -50.362,19.705c14.793,5.226 26.256,9.306 41.748,12.612c46.266,9.871 94.492,4.336 137.318,-15.761c19.124,-9.169 29.987,-16.248 46.507,-28.95l15.262,-13.67c3.36,-3.525 15.417,-17.538 17.277,-19.054c-0.112,2.431 -6.127,8.42 -8.023,10.383c1.614,3.145 2.037,3.941 2.964,7.407l0.729,0.113c4.822,-3.667 8.648,-11.96 12.578,-13.91c-4.63,6.552 -13.855,16.865 -17.356,22.425c1.812,-0.792 3.342,-2.546 5.937,-3.808c-3.429,4.843 -7.314,9.231 -11.149,13.756c-7.903,7.864 -14.86,15.415 -23.285,22.767c-35.666,31.126 -76.097,47.645 -122.43,55.569c-28.238,4.875 -85.026,-3.857 -111.202,-15.827c-20.853,-6.395 -43.901,-18.024 -61.76,-30.57c3.609,-3.867 13.575,-12.325 17.795,-16.041l34.189,-30.035l91.248,-80.85c8.826,-7.895 17.909,-15.403 26.577,-23.441c2.09,-1.938 1.983,-2.48 2.642,-5.481Z" style="fill:url(#_Linear2);fill-rule:nonzero;"/><path d="M616.787,820.903c1.812,-0.792 3.342,-2.546 5.937,-3.808c-3.429,4.843 -7.314,9.231 -11.149,13.756c-7.903,7.864 -14.86,15.415 -23.285,22.767c-35.666,31.126 -76.097,47.645 -122.43,55.569c-28.238,4.875 -85.026,-3.857 -111.202,-15.827c3.607,0.695 7.35,1.537 10.909,2.366c84.344,19.657 177.962,-0.633 240.007,-62.917c3.829,-3.844 7.343,-8.093 11.213,-11.906Z" style="fill:url(#_Linear3);fill-rule:nonzero;"/><path d="M593.356,827.209l15.262,-13.67c-1.331,2.682 -0.661,4.654 -1.532,6.151c-2.233,1.719 -11.384,7.25 -13.73,7.519Z" style="fill:#5ec34c;fill-rule:nonzero;"/><path d="M556.139,680.602c0.669,-6.338 3.256,-17.891 4.516,-24.443l9.436,-48.699l11.082,-57.322c1.977,-10.348 4.071,-23.377 6.593,-33.343c14.856,26.535 17.435,59.119 16.235,88.88c-0.214,5.3 -1.516,18.779 0.155,22.955c-2.09,14.107 -5.516,29.946 -8.139,44.101c-1.517,8.188 -3.912,23.07 -5.995,30.626c-2.847,20.697 -8.711,42.146 -12.067,62.878c-0.578,3.573 -1.426,7.927 -2.328,11.425c-5.737,2.218 -13.004,5.283 -18.697,7.199l-0.648,-1.332c-2.452,-2.85 1.195,-7.922 1.183,-11.081c-0.043,-11.804 -13.171,-10.204 -18.54,-16.245c-0.978,-1.1 -0.396,-3.121 -0.106,-4.48l3.606,-1.531c3.408,-15.999 6.172,-32.248 9.367,-48.275c0.859,-4.309 3.135,-17.919 4.347,-21.313Z" style="fill:#80d148;fill-rule:nonzero;"/><path d="M542.425,750.19c3.408,-15.999 6.172,-32.248 9.367,-48.275c0.859,-4.309 3.135,-17.919 4.347,-21.313l0.422,0.844c-1.393,10.637 -5.211,24.506 -6.446,35.408c0.182,0.984 1.262,2.406 1.768,3.089c2.854,3.857 8.126,6.358 11.35,9.477c2.784,2.694 10.911,9.843 12.781,12.462c2.717,3.803 -1.104,7.971 2.578,14.293l0.523,-0.268c1.736,-7.099 8.396,-49.092 10.907,-52.55c-2.847,20.697 -8.711,42.146 -12.067,62.878c-0.578,3.573 -1.426,7.927 -2.328,11.425c-5.737,2.218 -13.004,5.283 -18.697,7.199l-0.648,-1.332c-2.452,-2.85 1.195,-7.922 1.183,-11.081c-0.043,-11.804 -13.171,-10.204 -18.54,-16.245c-0.978,-1.1 -0.396,-3.121 -0.106,-4.48l3.606,-1.531Z" style="fill:#5ec34c;fill-rule:nonzero;"/><path d="M512.19,477.356c2.589,1.476 7.664,0.832 10.977,0.823c22.506,-0.065 35.354,3.278 51.744,18.43l-141.96,47.212l-40.972,13.619c-6.328,2.11 -16.296,5.773 -22.604,7.356l0.047,-0.22c1.352,-1.381 7.417,-3.196 9.551,-3.674c-1.272,-8.973 -23.43,-17.956 -20.98,-29.762c0.163,-0.788 1.322,-1.276 2.048,-1.75l-0.084,-0.502c-5.067,0.185 -16.719,6.463 -19.957,5.365c4.582,-1.877 13.93,-4.617 19.003,-6.293l38.697,-12.825c38.098,-12.79 76.262,-25.383 114.49,-37.779Z" style="fill:url(#_Linear4);fill-rule:nonzero;"/><path d="M612.663,444.242c1.763,0.087 2.506,-0.018 4.244,-0.371c7.193,3.395 14.476,11.847 17.493,19.178c0.555,1.35 0.079,2.68 -0.315,4.041l0.382,0.465l0.326,0.011c-8.155,47.142 -18.313,94.157 -26.874,141.239c-1.168,6.426 -2.312,13.5 -3.763,19.825c-1.671,-4.176 -0.369,-17.655 -0.155,-22.955c1.2,-29.761 -1.379,-62.345 -16.235,-88.88c0.259,-3.615 4.412,-22.189 5.413,-26.222c-5.999,1.693 -12.406,3.934 -18.268,6.036c-16.39,-15.152 -29.238,-18.495 -51.744,-18.43c-3.313,0.009 -8.388,0.653 -10.977,-0.823l68.28,-22.386c10.318,-3.437 21.947,-7.794 32.193,-10.728Z" style="fill:url(#_Linear5);fill-rule:nonzero;"/><path d="M416.462,184.381l0.638,-0.611c5.155,2.251 39.147,39.542 44.96,46.983c3.325,4.257 12.309,17.262 15.536,20.698c0.977,2.826 12.322,20.844 15.014,26.024c11.473,22.448 19.422,46.529 23.569,71.395c0.384,2.211 1.77,10.308 1.415,12.004c-1.864,-2.91 -2.226,-8.204 -2.591,-11.692l-0.584,0.654c-2.129,0.106 -7.664,-0.038 -8.821,1.077c-0.774,4.779 1.841,8.194 0.202,13.298c-0.889,-8.107 -1.474,-15.869 -3.063,-23.899c-8.559,-43.253 -34.291,-81.579 -65.474,-112.108c6.147,44.613 5.749,81.028 -9.153,124.353c-1.569,4.561 -5.986,17.234 -8.517,21.069l-0.243,-0.261c-0.05,-0.896 0.075,-1.642 0.249,-2.52c-7.387,-1.654 -18.286,12.456 -23.578,16.879c2.273,-5.601 10.947,-16.401 11.464,-21.243c0.682,-2.401 5.156,-10.523 6.516,-13.683c5.422,-12.592 13.686,-35.492 14.588,-49.147c4.082,-17.123 4.605,-59.697 -0.85,-76.346c-1.277,-11.241 -7.845,-31.977 -11.277,-42.924Z" style="fill:url(#_Linear6);fill-rule:nonzero;"/><path d="M186.327,624.231c-1.113,-61.07 16.292,-109.36 51.209,-159.261c10.087,-14.416 21.396,-28.023 31.555,-42.575c9.575,-13.13 18.755,-26.649 26.958,-40.685c3.045,-5.21 7.24,-11.042 9.587,-16.521c0.718,4.712 2.529,9.885 3.685,14.583c1.438,5.845 2.657,11.673 3.904,17.56l5.774,28.299c0.575,2.879 2.296,10.752 2.482,13.46c-1.275,1.259 2.748,12.606 1.55,13.686c-1.636,1.476 -16.466,8.022 -18.247,8.713l-0.823,-0.634c-0.345,-6.642 -3.887,-20.933 -5.308,-28.443l-0.577,0.448c-2.022,-6.682 -2.832,-15.21 -4.655,-22.026c-20.205,22.909 -42.603,51.262 -59.345,76.557c-23.222,35.084 -38.404,81.807 -40.329,123.922c-2.235,7.741 -1.091,19.873 -0.61,27.997c0.223,3.758 0.967,7.229 0.651,11.05c-1.199,-0.408 -1.895,-0.203 -3.12,-0.038c-2.295,-1.082 -1.447,-2.84 -2.129,-5.477c-1.762,-6.806 -0.097,-13.806 -2.212,-20.615Z" style="fill:url(#_Linear7);fill-rule:nonzero;"/><path d="M340,534.253c3.238,1.098 14.89,-5.18 19.957,-5.365l0.084,0.502c-0.726,0.474 -1.885,0.962 -2.048,1.75c-2.45,11.806 19.708,20.789 20.98,29.762c-2.134,0.478 -8.199,2.293 -9.551,3.674l-0.047,0.22c-16.651,5.891 -38.009,11.677 -53.801,17.9c-2.339,8.678 -4.987,19.655 -6.828,28.49c-2.175,-1.378 -7.155,-5.735 -9.359,-7.479c-7.414,-5.866 -14.552,-12.023 -22.277,-17.508c2.692,-9.335 5.977,-24.164 8.008,-33.794c18.155,-5.993 36.689,-12.429 54.882,-18.152Z" style="fill:#5ec34c;fill-rule:nonzero;"/><path d="M666.833,585.903c1.037,3.71 0.097,10.09 1.071,12.224c6.129,0.41 7.447,5.027 12.66,5.574c0.697,-4.46 -1.462,-4.219 0.175,-8.351c1.154,4.379 1.501,15.924 2.243,21.22c4.953,35.346 5.666,69.284 -3.367,104.198c-0.72,11.084 -13.489,38.062 -18.694,48.19c-6.504,10.662 -11.613,19.289 -19.278,29.44c-3.183,4.216 -8.49,10.601 -11.259,14.614c-3.098,3.445 -15.201,17.301 -18.809,17.839c3.835,-4.525 7.72,-8.913 11.149,-13.756c-2.595,1.262 -4.125,3.016 -5.937,3.808c3.501,-5.56 12.726,-15.873 17.356,-22.425c-3.93,1.95 -7.756,10.243 -12.578,13.91l-0.729,-0.113c-0.927,-3.466 -1.35,-4.262 -2.964,-7.407c1.896,-1.963 7.911,-7.952 8.023,-10.383c1.2,-2.197 3.944,-5.566 5.582,-7.697c21.62,-28.128 31.766,-59.147 38.14,-93.3c1.973,-13.047 2.637,-26.258 1.983,-39.436c-1.331,-24.811 -5.391,-41.523 -4.767,-68.149Z" style="fill:#dd5767;fill-rule:nonzero;"/><path d="M625.895,794.485c1.2,-2.197 3.944,-5.566 5.582,-7.697c21.62,-28.128 31.766,-59.147 38.14,-93.3c0.309,9.134 -2.008,14.841 -2.152,21.346c-5.839,28.406 -12.469,50.006 -27.04,75.541c-3.429,3.061 -4.158,5.848 -6.282,8.103c-3.93,1.95 -7.756,10.243 -12.578,13.91l-0.729,-0.113c-0.927,-3.466 -1.35,-4.262 -2.964,-7.407c1.896,-1.963 7.911,-7.952 8.023,-10.383Z" style="fill:#5ec34c;fill-rule:nonzero;"/><path d="M667.465,714.834c2.329,7.744 -9.756,35.748 -8.798,40.514c1.794,-1.3 0.943,-1.217 2.617,-1.087c1.193,1.418 1.225,2.755 0.903,4.535l1.476,0.197l-0.857,1.389l0.469,0.909l0.507,0.037l0.235,-0.678c3.425,-9.633 9.411,-19.318 11.767,-29.687c0.379,-1.667 2.819,-9.307 3.831,-10.195c-0.72,11.084 -13.489,38.062 -18.694,48.19c-6.504,10.662 -11.613,19.289 -19.278,29.44c-3.183,4.216 -8.49,10.601 -11.259,14.614c-3.098,3.445 -15.201,17.301 -18.809,17.839c3.835,-4.525 7.72,-8.913 11.149,-13.756c-2.595,1.262 -4.125,3.016 -5.937,3.808c3.501,-5.56 12.726,-15.873 17.356,-22.425c2.124,-2.255 2.853,-5.042 6.282,-8.103c14.571,-25.535 21.201,-47.135 27.04,-75.541Z" style="fill:#c5284b;fill-rule:nonzero;"/><path d="M634.143,798.478c2.124,-2.255 2.853,-5.042 6.282,-8.103c-2.132,4.729 -13.945,24.497 -17.701,26.72c-2.595,1.262 -4.125,3.016 -5.937,3.808c3.501,-5.56 12.726,-15.873 17.356,-22.425Z" style="fill:#1b954d;fill-rule:nonzero;"/><path d="M324.586,454.246c6.072,-4.508 12.313,-8.458 18.399,-13.216c22.552,-17.628 43.305,-39.132 58.13,-63.709c2.184,-3.619 4.171,-7.253 6.37,-10.84c-0.517,4.842 -9.191,15.642 -11.464,21.243c5.292,-4.423 16.191,-18.533 23.578,-16.879c-0.174,0.878 -0.299,1.624 -0.249,2.52l0.243,0.261c-20.025,47.915 -65.906,89.945 -110.497,115.037c-3.564,-18.493 -7.801,-37.3 -11.02,-55.802l0.577,-0.448c1.421,7.51 4.963,21.801 5.308,28.443l0.823,0.634c1.781,-0.691 16.611,-7.237 18.247,-8.713c1.198,-1.08 -2.825,-12.427 -1.55,-13.686c1.25,4.426 2.23,10.529 3.105,15.155Z" style="fill:url(#_Linear8);fill-rule:nonzero;"/><path d="M554.315,393.089c18.391,-5.268 35.641,-15.437 52.1,-24.732c-2.182,2.431 -9.667,5.984 -9.743,8.437c1.323,1.114 2.394,2.014 3.6,3.28c1.407,1.477 2.514,6.419 4.489,6.197c2.086,-0.236 2.713,-1.457 4.989,-1.561c-26.777,19.382 -79.167,39.789 -111.501,45.976c8.416,-6.7 15.231,-13.494 20.227,-23.02l2.904,-5.533c3.833,1.332 28.16,-7.174 32.935,-9.044Z" style="fill:#dd5767;fill-rule:nonzero;"/><path d="M666.833,585.903c-0.67,-53.423 18.678,-112.281 49.881,-155.232c4.33,-5.96 10.001,-14.241 14.928,-19.62c-2,5.562 -12.555,19.002 -15.463,26.122c-2.504,3.029 -7.722,14.518 -9.618,18.595c-21.231,45.638 -27.935,89.938 -25.822,139.582c-1.637,4.132 0.522,3.891 -0.175,8.351c-5.213,-0.547 -6.531,-5.164 -12.66,-5.574c-0.974,-2.134 -0.034,-8.514 -1.071,-12.224Z" style="fill:#f39585;fill-rule:nonzero;"/><path d="M606.415,368.357c1.713,-0.792 9.205,-5.814 11.007,-7.042c10.411,-7.166 20.404,-14.92 29.931,-23.225c6.195,-5.344 14.493,-14.006 21.576,-17.676c7.23,-3.748 14.722,-7.888 21.939,-11.612l5.297,5.146c-22.535,22.576 -46.89,43.26 -72.819,61.84c-2.244,1.592 -11.633,8.142 -13.596,8.922c-2.276,0.104 -2.903,1.325 -4.989,1.561c-1.975,0.222 -3.082,-4.72 -4.489,-6.197c-1.206,-1.266 -2.277,-2.166 -3.6,-3.28c0.076,-2.453 7.561,-6.006 9.743,-8.437Z" style="fill:#f39585;fill-rule:nonzero;"/><path d="M277.11,586.199c7.725,5.485 14.863,11.642 22.277,17.508c2.204,1.744 7.184,6.101 9.359,7.479c-2.638,11.167 -5.367,22.312 -8.185,33.435c-0.411,-1.898 0.445,-4.047 -0.471,-4.532c-8.537,-4.52 -21.001,-7.549 -30.534,-8.301c-2.059,-0.162 -1.593,0.065 -3.151,-0.692c3.935,-14.144 7.316,-30.449 10.705,-44.897Z" style="fill:#27c7c7;fill-rule:nonzero;"/><path d="M505.8,364.211c1.639,-5.104 -0.976,-8.519 -0.202,-13.298c1.157,-1.115 6.692,-0.971 8.821,-1.077l0.584,-0.654c0.365,3.488 0.727,8.782 2.591,11.692c0.919,8.47 2.584,37.167 0.226,44.323l-0.283,-4.493c0.121,1.006 -0.447,3.442 -1.428,4.114c-3.59,-0.236 -8.403,-2.661 -11.566,-4.343c0.078,-2.175 0.599,-6.333 -0.49,-7.899c1.466,-9.538 1.684,-18.755 1.747,-28.365Z" style="fill:#90eef0;fill-rule:nonzero;"/><path d="M186.327,624.231c2.115,6.809 0.45,13.809 2.212,20.615c0.682,2.637 -0.166,4.395 2.129,5.477c1.225,-0.165 1.921,-0.37 3.12,0.038c0.316,-3.821 -0.428,-7.292 -0.651,-11.05c-0.481,-8.124 -1.625,-20.256 0.61,-27.997c-0.506,36.5 2.238,64.144 15.601,98.705c2.195,5.784 4.588,11.491 7.174,17.11c1.665,3.553 5.651,11.196 6.639,14.497c-2.701,-2.699 -6.154,-8.468 -8.125,-11.854c-13.952,-23.963 -22.33,-51.059 -26.561,-78.375c-1.263,-8.151 -2.561,-19.027 -2.148,-27.166Z" style="fill:#2261a0;fill-rule:nonzero;"/><path d="M504.053,392.576c1.089,1.566 0.568,5.724 0.49,7.899c3.163,1.682 7.976,4.107 11.566,4.343c0.981,-0.672 1.549,-3.108 1.428,-4.114l0.283,4.493c0.112,1.317 0.021,1.341 0.656,2.469c-4.996,9.526 -11.811,16.32 -20.227,23.02c-1.778,0.491 -3.754,0.918 -5.563,1.349c5.879,-14.81 8.775,-23.465 11.367,-39.459Z" style="fill:#c7f9fb;fill-rule:nonzero;"/><path d="M612.663,444.242c9.494,-3.334 19.105,-6.239 28.511,-9.56c-2.173,9.647 -4.073,24.483 -6.381,32.884l-0.326,-0.011l-0.382,-0.465c0.394,-1.361 0.87,-2.691 0.315,-4.041c-3.017,-7.331 -10.3,-15.783 -17.493,-19.178c-1.738,0.353 -2.481,0.458 -4.244,0.371Z" style="fill:#e9fccc;fill-rule:nonzero;"/><path d="M287.344,435.752c0.953,5.809 2.238,11.61 3.447,17.375c-30.573,32.354 -56.399,77.993 -66.413,121.493c-1.623,7.256 -2.907,14.584 -3.85,21.96c-0.374,3.003 -1.079,11.158 -1.687,13.781c-0.712,29.923 0.712,53.952 10.282,82.793c1.355,4.085 4.566,13.067 6.592,16.466c-1.285,6.373 -3.333,13.75 -4.785,20.371c-3.783,-5.427 -6.659,-12.691 -9.181,-18.865c-12.357,-30.006 -18.236,-62.283 -17.253,-94.718c0.207,-5.846 0.649,-14.314 1.775,-20.016c0.404,-7.371 3.397,-20.678 5.094,-27.971c12.195,-52.44 41.853,-92.287 75.979,-132.669Z" style="fill:#27c7c7;fill-rule:nonzero;"/><path d="M206.271,596.392c0.818,4.014 -0.978,18.786 -1.006,24.629c-0.098,20.367 2.195,37.608 6.664,57.447c3.529,-1.243 8.678,-2.506 10.745,-5.422c-0.129,-3.566 -1.73,-6.582 -2.079,-9.878c-1.623,-15.323 -4.869,-37.36 -2.358,-52.437l0.445,-0.396l0.159,0.026c-0.712,29.923 0.712,53.952 10.282,82.793c1.355,4.085 4.566,13.067 6.592,16.466c-1.285,6.373 -3.333,13.75 -4.785,20.371c-3.783,-5.427 -6.659,-12.691 -9.181,-18.865c-12.357,-30.006 -18.236,-62.283 -17.253,-94.718c0.207,-5.846 0.649,-14.314 1.775,-20.016Z" style="fill:#189aaa;fill-rule:nonzero;"/><path d="M249.032,831.522c-11.369,-10.366 -21.777,-21.738 -31.099,-33.978c-45.332,-59.438 -65.31,-134.396 -55.574,-208.511c5.377,-41.61 19.69,-81.566 41.957,-117.126c5.986,-9.596 12.702,-18.596 19.262,-27.805l28.222,-39.588c20.347,-28.414 44.392,-60.536 50.847,-95.638c0.313,-1.707 0.493,-6.518 1.506,-7.297c2.555,1.845 5.188,7.255 7.105,9.968c15.022,21.266 18.573,44.717 22.921,69.872c-0.408,4.971 -15.016,22.477 -18.851,22.491c0.111,-2.165 -0.76,-4.876 -2.103,-6.578c-1.247,-5.887 -2.466,-11.715 -3.904,-17.56c-1.156,-4.698 -2.967,-9.871 -3.685,-14.583c-2.347,5.479 -6.542,11.311 -9.587,16.521c-8.203,14.036 -17.383,27.555 -26.958,40.685c-10.159,14.552 -21.468,28.159 -31.555,42.575c-34.917,49.901 -52.322,98.191 -51.209,159.261c-0.413,8.139 0.885,19.015 2.148,27.166c4.231,27.316 12.609,54.412 26.561,78.375c1.971,3.386 5.424,9.155 8.125,11.854c2.048,3.774 9.351,13.603 12.172,17.621c3.924,-14.235 7.414,-30.197 10.846,-44.686l13.1,-54.074c2.302,-9.597 4.541,-19.979 7.126,-29.391c1.558,0.757 1.092,0.53 3.151,0.692c9.533,0.752 21.997,3.781 30.534,8.301c0.916,0.485 0.06,2.634 0.471,4.532c-1.478,8.514 -5.156,21.386 -7.314,30.286c-2.543,10.482 -5.519,24.192 -8.629,34.308c7.489,-8.249 14.033,-17.903 20.414,-27.029c1.013,-1.447 4.88,-7.545 5.852,-8.345c5.281,-7.995 12.813,-19.357 18.538,-26.809c5.072,-7.041 10.081,-14.126 15.026,-21.256c9.529,7.515 19.363,15.511 29,22.817c-6.432,9.363 -12.746,18.808 -18.94,28.331c-2.984,4.214 -8.468,12.523 -11.513,16.2c-3.345,5.788 -9.793,14.624 -13.684,20.293l-27.705,40.261l-34.027,50.506c-5.946,8.861 -12.32,18.777 -18.547,27.338Z" style="fill:url(#_Linear9);fill-rule:nonzero;"/><path d="M344.448,625.776c9.529,7.515 19.363,15.511 29,22.817c-6.432,9.363 -12.746,18.808 -18.94,28.331c-1.279,-2.642 -2.248,-5.286 -3.625,-7.819c-4.84,-8.903 -13.821,-15.274 -21.461,-22.073c5.072,-7.041 10.081,-14.126 15.026,-21.256Z" style="fill:#27c7c7;fill-rule:nonzero;"/><path d="M329.422,647.032c7.64,6.799 16.621,13.17 21.461,22.073c1.377,2.533 2.346,5.177 3.625,7.819c-2.984,4.214 -8.468,12.523 -11.513,16.2l-0.558,-0.065c0.222,-1.831 7.342,-10.834 9.076,-13.439c-0.403,-0.489 -0.282,-0.405 -0.803,-0.773c-5.841,-4.125 -10.031,-9.768 -15.062,-14.7c-3.108,-3.045 -7.376,-6.326 -10.854,-9.083c-2.173,3.259 -11.445,17.776 -13.91,18.777c5.281,-7.995 12.813,-19.357 18.538,-26.809Z" style="fill:#189aaa;fill-rule:nonzero;"/><path d="M808.63,321.012c13.671,9.227 20.926,17.178 24.252,33.94c1.101,5.584 1.592,11.271 1.463,16.961c-0.067,2.926 -0.921,8.39 0.475,10.804c-0.76,8.321 -3.671,19.935 -5.239,28.458c-3.752,20.925 -7.616,41.828 -11.594,62.711c-1.317,6.959 -2.759,13.894 -4.326,20.801l-50.829,-52.244c-6.941,9.035 -13.972,18.021 -19.983,27.713c-24.358,39.393 -36.18,85.253 -33.901,131.513c0.514,10.477 2.24,21.363 2.783,31.84c1.595,29.827 -1.688,59.715 -9.721,88.485c-3.337,11.705 -8.496,27.423 -14.03,38.372c-3.972,3.125 -7.157,15.764 -12.049,20.188l-0.466,-0.148l0.133,-1.019c-1.335,-0.005 -0.712,-0.04 -2.104,0.797c-0.733,-1.48 -1.015,-2.803 -2.178,-3.396c-2.234,0.647 -2.535,0.888 -4.573,2.108c-1.43,-0.068 -2.175,-0.15 -3.556,-0.349c-1.747,-1.956 -2.515,-2.891 -3.963,-5.068c0.562,-1.325 1.424,-3.146 1.697,-4.521c5.205,-10.128 17.974,-37.106 18.694,-48.19c9.033,-34.914 8.32,-68.852 3.367,-104.198c-0.742,-5.296 -1.089,-16.841 -2.243,-21.22c-2.113,-49.644 4.591,-93.944 25.822,-139.582c1.896,-4.077 7.114,-15.566 9.618,-18.595c2.908,-7.12 13.463,-20.56 15.463,-26.122c2.972,-5.286 24.672,-28.74 29.116,-33.422c10.415,10.572 20.66,21.309 30.732,32.208c2.137,-7.73 4.532,-22.948 6.158,-31.241c3.946,-19.139 7.607,-38.336 10.982,-57.584Z" style="fill:url(#_Linear10);fill-rule:nonzero;"/><path d="M808.63,321.012c13.671,9.227 20.926,17.178 24.252,33.94c1.101,5.584 1.592,11.271 1.463,16.961c-0.067,2.926 -0.921,8.39 0.475,10.804c-0.76,8.321 -3.671,19.935 -5.239,28.458c-3.752,20.925 -7.616,41.828 -11.594,62.711c-3.245,-2.288 -13.38,-13.195 -16.628,-16.386c-12.553,-12.331 -25.127,-25.877 -38.073,-37.706c-13.775,16.827 -27.429,34.935 -36.632,54.548c-0.475,1.011 -2.26,4.344 -3.239,4.668c1.776,-4.487 4.813,-8.664 6.53,-13.321c0.552,-1.395 2.248,-2.701 2.848,-3.931c5.607,-11.493 14.047,-21.934 21.608,-32.241c2.434,-3.319 5.625,-7.477 8.523,-10.368c-5.986,-5.754 -7.354,-8.193 -11.799,-14.953c-0.861,-1.308 -4.779,-5.629 -6.49,-5.885c-8.556,2.907 -22.907,35.059 -28.456,38.862c2.908,-7.12 13.463,-20.56 15.463,-26.122c2.972,-5.286 24.672,-28.74 29.116,-33.422c10.415,10.572 20.66,21.309 30.732,32.208c2.137,-7.73 4.532,-22.948 6.158,-31.241c3.946,-19.139 7.607,-38.336 10.982,-57.584Z" style="fill:url(#_Linear11);fill-rule:nonzero;"/><path d="M726.657,231.921c18.003,0.14 35.315,0.771 49.219,14.396c2.273,2.227 5.827,7.073 7.027,9.982c-21.383,5.473 -42.802,10.806 -64.254,16c-5.595,1.848 -13.383,3.508 -19.251,4.938c-11.204,2.811 -22.464,5.39 -33.774,7.735c8.272,8.093 16.688,16.037 25.244,23.83c-7.217,3.724 -14.709,7.864 -21.939,11.612c-7.083,3.67 -15.381,12.332 -21.576,17.676c-9.527,8.305 -19.52,16.059 -29.931,23.225c-1.802,1.228 -9.294,6.25 -11.007,7.042c-16.459,9.295 -33.709,19.464 -52.1,24.732c-2.424,-1.046 -10.496,4.156 -14.347,3.844c-6.539,-3.706 -1.712,-17.534 -0.55,-23.029c3.354,-3.774 3.866,0.489 9.009,-2.15l0.278,-1.021c32.366,-14.767 62.068,-34.781 87.907,-59.234c-6.47,-5.94 -13.977,-11.942 -20.766,-17.675c-10.352,-8.766 -20.651,-17.594 -30.897,-26.483c24.714,-6.755 50.013,-12.186 74.785,-18.847c8.049,-2.165 17.947,-5.017 26.005,-6.306c6.313,-2.259 16.184,-3.527 22.865,-6.019c4.815,-0.752 13.047,-3.015 18.053,-4.248Z" style="fill:#ed692c;fill-rule:nonzero;"/><path d="M726.657,231.921c18.003,0.14 35.315,0.771 49.219,14.396c2.273,2.227 5.827,7.073 7.027,9.982c-21.383,5.473 -42.802,10.806 -64.254,16l-0.718,-0.519c10.443,-2.743 20.92,-5.357 31.428,-7.842c5.049,-1.232 12.82,-2.893 17.409,-4.628l0.554,-2.88c-0.976,-4.065 -18.38,-20.554 -22.719,-22.107c-14.341,-5.134 -32.528,2.61 -46.754,5.624c-3.386,0.718 -8.954,2.945 -12.11,2.241c6.313,-2.259 16.184,-3.527 22.865,-6.019c4.815,-0.752 13.047,-3.015 18.053,-4.248Z" style="fill:#fcb31e;fill-rule:nonzero;"/><path d="M813.678,211.396c4.058,4.22 8.656,7.699 12.889,11.72c8.621,8.189 17.385,16.155 26.302,24.015c2.031,1.789 3.268,4.71 5.017,6.683c0.534,-1.177 0.669,-2.041 1.564,-2.656c-1.319,11.119 -4.99,27.744 -7.144,39.171l-12.796,68.68c-1.832,7.758 -2.869,16.317 -4.69,23.708c-1.396,-2.414 -0.542,-7.878 -0.475,-10.804c0.129,-5.69 -0.362,-11.377 -1.463,-16.961c-3.326,-16.762 -10.581,-24.713 -24.252,-33.94c5.248,-24.427 9.73,-49.962 14.793,-74.622l-40.52,9.909c-1.2,-2.909 -4.754,-7.755 -7.027,-9.982c-13.904,-13.625 -31.216,-14.256 -49.219,-14.396c25.442,-5.499 52.226,-13.967 77.56,-19.174c2.687,0.521 6.383,-0.834 9.461,-1.351Z" style="fill:url(#_Linear12);fill-rule:nonzero;"/><path d="M477.596,251.451c-1.428,-5.582 -14.26,-18.598 -16.544,-23.979l1.982,-0.089c2.531,-2.369 -0.211,-0.787 1.322,-2.703c2.828,0.997 18.86,21.648 21.952,25.233l0.993,0.185c5.692,7.581 11.155,17.913 15.733,23.822l0.668,-0.689c-3.919,-6.726 -8.022,-13.054 -12.397,-19.46c-1.684,-2.467 -8.597,-11.227 -9.455,-13.101c1.135,-1.453 2.215,-1.104 3.541,-1.705c2.867,-1.298 4.039,-5.585 8.064,-6.095c4.689,3.306 15.046,21.701 18.597,27.333c2.14,3.394 4.071,8.71 6.968,11.43c15.657,30.837 26.331,66.003 24.345,100.853c1.07,-0.381 4.43,-1.678 5.34,-1.753l-0.278,1.021c-5.143,2.639 -5.655,-1.624 -9.009,2.15c-1.162,5.495 -5.989,19.323 0.55,23.029c3.851,0.312 11.923,-4.89 14.347,-3.844c-4.775,1.87 -29.102,10.376 -32.935,9.044l-2.904,5.533c-0.635,-1.128 -0.544,-1.152 -0.656,-2.469c2.358,-7.156 0.693,-35.853 -0.226,-44.323c0.355,-1.696 -1.031,-9.793 -1.415,-12.004c-4.147,-24.866 -12.096,-48.947 -23.569,-71.395c-2.692,-5.18 -14.037,-23.198 -15.014,-26.024Z" style="fill:#aa205c;fill-rule:nonzero;"/><path d="M477.596,251.451c-1.428,-5.582 -14.26,-18.598 -16.544,-23.979l1.982,-0.089c2.531,-2.369 -0.211,-0.787 1.322,-2.703c2.828,0.997 18.86,21.648 21.952,25.233l0.993,0.185c5.692,7.581 11.155,17.913 15.733,23.822c17.931,35.531 34.995,89.897 18.346,128.213l-2.904,5.533c-0.635,-1.128 -0.544,-1.152 -0.656,-2.469c2.358,-7.156 0.693,-35.853 -0.226,-44.323c0.355,-1.696 -1.031,-9.793 -1.415,-12.004c-4.147,-24.866 -12.096,-48.947 -23.569,-71.395c-2.692,-5.18 -14.037,-23.198 -15.014,-26.024Z" style="fill:#27c7c7;fill-rule:nonzero;"/><path d="M402.202,295.65c1.019,1.565 -0.277,6.4 -0.761,8.688c-1.502,7.071 -3.345,14.066 -5.522,20.96c-1.02,3.135 -4.264,11.146 -4.58,13.79c3.842,4.417 25.083,13.894 26.429,2.475c0.688,-5.83 5.02,-13.499 6.156,-19.889c0.324,-1.822 4.027,-17.892 4.06,-17.951l0.605,-0.072c-0.902,13.655 -9.166,36.555 -14.588,49.147c-1.36,3.16 -5.834,11.282 -6.516,13.683c-2.199,3.587 -4.186,7.221 -6.37,10.84c-14.825,24.577 -35.578,46.081 -58.13,63.709c-6.086,4.758 -12.327,8.708 -18.399,13.216c-0.875,-4.626 -1.855,-10.729 -3.105,-15.155c-0.186,-2.708 -1.907,-10.581 -2.482,-13.46l-5.774,-28.299c1.343,1.702 2.214,4.413 2.103,6.578c3.835,-0.014 18.443,-17.52 18.851,-22.491c2.171,11.079 3.421,21.995 5.392,33.005c28.52,-29.294 50.109,-63.713 59.426,-103.511c1.08,-4.614 1.757,-10.316 3.027,-14.667l0.178,-0.596Z" style="fill:url(#_Linear13);fill-rule:nonzero;"/><path d="M398.713,216.475l0.335,-0.749c-0.389,-2.432 -2.197,-8.523 -1.926,-9.928c3.079,0.194 13.899,2.79 16.629,4.612c2.206,1.472 5.411,3.389 7.992,4.06c1.149,-0.471 1.159,-0.492 2.157,-1.239c1.819,2.664 1.753,12.975 3.839,14.074c5.455,16.649 4.932,59.223 0.85,76.346l-0.605,0.072c-0.033,0.059 -3.736,16.129 -4.06,17.951c-1.136,6.39 -5.468,14.059 -6.156,19.889c-1.346,11.419 -22.587,1.942 -26.429,-2.475c0.316,-2.644 3.56,-10.655 4.58,-13.79c2.177,-6.894 4.02,-13.889 5.522,-20.96c0.484,-2.288 1.78,-7.123 0.761,-8.688c0.209,-3.141 0.73,-6.721 1.101,-9.885c2.776,-23.727 -0.335,-45.927 -4.59,-69.29Z" style="fill:#2261a0;fill-rule:nonzero;"/><path d="M409.581,599.192c4.642,3.159 45.483,-10.283 69.995,13.595l-70.562,23.743l-22.203,7.351c-3.844,1.261 -9.97,3.054 -13.363,4.712c-9.637,-7.306 -19.471,-15.302 -29,-22.817c0.996,-1.875 3.269,-5.082 4.702,-6.578c18.577,-5.739 42.157,-15.176 60.431,-20.006Z" style="fill:url(#_Linear14);fill-rule:nonzero;"/><path d="M373.099,128.592c24.403,15.953 57.622,37.065 78.246,57.555l0.27,0.442c2.444,3.94 5.424,7.773 8.006,11.79c7.773,12.093 13.987,25.02 17.871,38.89c2.019,2.485 8.672,10.584 9.809,12.829l-0.993,-0.185c-3.092,-3.585 -19.124,-24.236 -21.952,-25.233c-1.533,1.916 1.209,0.334 -1.322,2.703l-1.982,0.089c2.284,5.381 15.116,18.397 16.544,23.979c-3.227,-3.436 -12.211,-16.441 -15.536,-20.698c-5.813,-7.441 -39.805,-44.732 -44.96,-46.983l-0.638,0.611c3.432,10.947 10,31.683 11.277,42.924c-2.086,-1.099 -2.02,-11.41 -3.839,-14.074c-0.998,0.747 -1.008,0.768 -2.157,1.239c-2.581,-0.671 -5.786,-2.588 -7.992,-4.06c-2.73,-1.822 -13.55,-4.418 -16.629,-4.612c-0.271,1.405 1.537,7.496 1.926,9.928l-0.335,0.749c-0.838,-1.674 -5.295,-21.592 -6.438,-25.22c-6.448,-20.472 -12.141,-42.431 -19.176,-62.663Z" style="fill:#1c2582;fill-rule:nonzero;"/><path d="M414.252,179.002c6.099,4.585 12.747,9.218 18.603,13.975c16.849,13.685 30.56,27.92 44.637,44.292c2.019,2.485 8.672,10.584 9.809,12.829l-0.993,-0.185c-3.092,-3.585 -19.124,-24.236 -21.952,-25.233c-1.533,1.916 1.209,0.334 -1.322,2.703l-1.982,0.089c2.284,5.381 15.116,18.397 16.544,23.979c-3.227,-3.436 -12.211,-16.441 -15.536,-20.698c-5.813,-7.441 -39.805,-44.732 -44.96,-46.983l-0.638,0.611c-0.737,-1.766 -1.538,-3.596 -2.21,-5.379Z" style="fill:#189aaa;fill-rule:nonzero;"/><path d="M801.184,200.975l84.753,-21.859c-2.26,14.028 -4.726,28.022 -7.397,41.977c-1.259,-3.977 -1.009,-5.769 -0.988,-9.961c-1.558,-1.567 -5.668,-5.037 -7.813,-5.755c-0.888,-0.298 0.08,0.484 -1.247,-0.759c-2.27,10.4 -3.905,20.896 -5.886,31.334c-0.516,2.715 -2.241,12.831 -3.156,15.206c-0.895,0.615 -1.03,1.479 -1.564,2.656c-1.749,-1.973 -2.986,-4.894 -5.017,-6.683c-8.917,-7.86 -17.681,-15.826 -26.302,-24.015c-4.233,-4.021 -8.831,-7.5 -12.889,-11.72c-3.078,0.517 -6.774,1.872 -9.461,1.351c-25.334,5.207 -52.118,13.675 -77.56,19.174c-5.006,1.233 -13.238,3.496 -18.053,4.248c2.421,-3.15 49.938,-11.05 56.719,-14.852c-0.292,-2.825 -10.432,-1.708 -10.253,-6.552l0.977,-0.423c-3.807,-0.137 -9.068,1.951 -12.749,2.914c-8.799,2.301 -41.548,11.465 -48.419,10.894c-0.22,-0.019 -0.439,-0.042 -0.659,-0.063c10.144,-3.12 24.071,-6.217 34.561,-8.877l72.403,-18.235Z" style="fill:url(#_Linear15);fill-rule:nonzero;"/><path d="M856.149,199.525l13.869,-3.458c-0.487,2.664 -1.166,5.92 -1.526,8.551c-2.27,10.4 -3.905,20.896 -5.886,31.334c-0.516,2.715 -2.241,12.831 -3.156,15.206c-0.895,0.615 -1.03,1.479 -1.564,2.656c-1.749,-1.973 -2.986,-4.894 -5.017,-6.683c-8.917,-7.86 -17.681,-15.826 -26.302,-24.015c-4.233,-4.021 -8.831,-7.5 -12.889,-11.72c-3.078,0.517 -6.774,1.872 -9.461,1.351c15.324,-4.791 35.725,-8.704 51.932,-13.222Z" style="fill:url(#_Linear16);fill-rule:nonzero;"/><path d="M801.184,200.975l84.753,-21.859c-2.26,14.028 -4.726,28.022 -7.397,41.977c-1.259,-3.977 -1.009,-5.769 -0.988,-9.961c-1.558,-1.567 -5.668,-5.037 -7.813,-5.755c-0.888,-0.298 0.08,0.484 -1.247,-0.759c0.36,-2.631 1.039,-5.887 1.526,-8.551l-13.869,3.458c-5.168,-2.948 -6.058,-1.921 -10.207,-6.874l0.658,-1.28c-5.379,-0.841 -39.006,10.783 -45.416,9.604Z" style="fill:url(#_Linear17);fill-rule:nonzero;"/><path d="M630.384,813.012c4.816,-2.981 12.951,-14.657 15.849,-19.672c0.434,7.234 3.601,7.965 9.64,9.74c1.675,1.58 3.2,2.364 3.379,4.143c-2.481,3.834 -9.275,11.381 -12.536,15.112l0.456,0.822c-8.001,9.793 -20.07,20.566 -29.714,28.442c-40.888,33.392 -92.988,54.133 -145.639,58.068c-1.818,0.136 -4.127,0.568 -5.81,-0.037l-0.149,-0.443c46.333,-7.924 86.764,-24.443 122.43,-55.569c8.425,-7.352 15.382,-14.903 23.285,-22.767c3.608,-0.538 15.711,-14.394 18.809,-17.839Z" style="fill:#6b1c75;fill-rule:nonzero;"/><path d="M763.615,459.262c15.951,15.923 33.291,34.25 48.642,50.856l-1.416,1.114c-12.442,-12.291 -25.17,-26.444 -37.703,-38.219c-9.036,14.368 -11.973,21.558 -19.011,36.663c-5.684,15.691 -10.342,29.847 -13.298,46.364c-1.547,8.643 -2.116,16.824 -3.333,25.362l-0.355,-0.899c-0.927,0.483 -0.262,8.255 -1.334,10.57l-0.926,-0.415c-0.513,-0.848 -0.789,-2.352 -1.056,-3.385c-5.883,-0.032 -6.999,-7.818 -12.598,-8.455c-1.093,-3.581 1.208,-7.616 0.028,-11.966c2.823,-22.907 9.385,-51.533 20.598,-71.94c6.009,-12.599 13.302,-24.546 21.762,-35.65Z" style="fill:#aa205c;fill-rule:nonzero;"/><path d="M763.615,459.262c15.951,15.923 33.291,34.25 48.642,50.856l-1.416,1.114c-12.442,-12.291 -25.17,-26.444 -37.703,-38.219c-9.036,14.368 -11.973,21.558 -19.011,36.663l-0.481,-0.902c2.247,-5.888 14.99,-34.332 19.624,-36.009c2.374,0.553 10.155,8.823 12.133,11.014l0.202,-0.425c-2.36,-3.129 -6.35,-6.133 -9.099,-9.053c-4.282,-4.546 -8.542,-9.152 -12.805,-13.717c-8.371,11.354 -14.527,21.873 -20.782,34.398l-1.066,-0.07c6.009,-12.599 13.302,-24.546 21.762,-35.65Z" style="fill:#c5284b;fill-rule:nonzero;"/><path d="M676.536,805.522c0.751,-2.962 12.806,-21.631 15.606,-27.02c12.746,-25.084 21.736,-51.904 26.683,-79.602c3.432,-19.036 5.649,-48.007 4.138,-67.32c-1.747,-22.331 -5.654,-41.099 -1.797,-64.222l0.089,-0.506c1.18,4.35 -1.121,8.385 -0.028,11.966c5.599,0.637 6.715,8.423 12.598,8.455c0.267,1.033 0.543,2.537 1.056,3.385l0.926,0.415c1.072,-2.315 0.407,-10.087 1.334,-10.57l0.355,0.899c-1.31,23.135 0.387,43.841 -1.292,66.996c-3.433,47.358 -16.959,92.658 -42.411,132.921c-4.331,6.852 -11.744,18.335 -17.257,24.203Z" style="fill:#6b1c75;fill-rule:nonzero;"/><path d="M859.45,251.158c0.915,-2.375 2.64,-12.491 3.156,-15.206c1.981,-10.438 3.616,-20.934 5.886,-31.334c1.327,1.243 0.359,0.461 1.247,0.759c2.145,0.718 6.255,4.188 7.813,5.755c-0.021,4.192 -0.271,5.984 0.988,9.961c-3.498,19.779 -7.525,39.711 -11.226,59.482c-3.312,17.693 -6.301,36.406 -10.025,53.969l-1.203,0.363c-1.434,3.431 -6.296,29.757 -7.355,35.145c-1.013,-7.792 8.632,-45.435 9.447,-56.133c0.208,-2.729 1.978,-7.113 1.962,-11.092c-3.3,-1.207 -5.622,-1.549 -8.589,-2.484c-1.143,3.011 -2.328,11.068 -2.988,14.67l-4.956,26.932c-0.932,5.077 -1.942,11.773 -3.383,16.586l-0.714,0.478l12.796,-68.68c2.154,-11.427 5.825,-28.052 7.144,-39.171Z" style="fill:url(#_Linear18);fill-rule:nonzero;"/><path d="M663.187,778.547c1.381,0.199 2.126,0.281 3.556,0.349c2.038,-1.22 2.339,-1.461 4.573,-2.108c1.163,0.593 1.445,1.916 2.178,3.396c1.392,-0.837 0.769,-0.802 2.104,-0.797l-0.133,1.019l0.466,0.148c4.892,-4.424 8.077,-17.063 12.049,-20.188c-9.304,21.146 -24.932,45.852 -40.808,62.791l-0.456,-0.822c3.261,-3.731 10.055,-11.278 12.536,-15.112c-0.179,-1.779 -1.704,-2.563 -3.379,-4.143c-6.039,-1.775 -9.206,-2.506 -9.64,-9.74c-2.898,5.015 -11.033,16.691 -15.849,19.672c2.769,-4.013 8.076,-10.398 11.259,-14.614c7.665,-10.151 12.774,-18.778 19.278,-29.44c-0.273,1.375 -1.135,3.196 -1.697,4.521c1.448,2.177 2.216,3.112 3.963,5.068Z" style="fill:#aa205c;fill-rule:nonzero;"/><path d="M451.345,186.147c3.033,1.717 8.95,7.914 11.653,10.519c17.684,17.037 46.907,52.006 56.022,74.967c-2.897,-2.72 -4.828,-8.036 -6.968,-11.43c-3.551,-5.632 -13.908,-24.027 -18.597,-27.333c-4.025,0.51 -5.197,4.797 -8.064,6.095c-1.326,0.601 -2.406,0.252 -3.541,1.705c0.858,1.874 7.771,10.634 9.455,13.101c4.375,6.406 8.478,12.734 12.397,19.46l-0.668,0.689c-4.578,-5.909 -10.041,-16.241 -15.733,-23.822c-1.137,-2.245 -7.79,-10.344 -9.809,-12.829c-3.884,-13.87 -10.098,-26.797 -17.871,-38.89c-2.582,-4.017 -5.562,-7.85 -8.006,-11.79l-0.27,-0.442Z" style="fill:#6b1c75;fill-rule:nonzero;"/><path d="M848.731,370.052c1.059,-5.388 5.921,-31.714 7.355,-35.145l1.203,-0.363l-22.217,120.903l-7.618,42.273c-1.378,7.693 -2.864,17.601 -4.656,25.069l-11.957,-11.557l1.416,-1.114c3.227,3.192 6.437,6.4 9.629,9.626c0.86,-12.536 6.133,-37.359 8.56,-50.234l11.505,-63.225c2.188,-11.858 4.911,-24.412 6.78,-36.233Z" style="fill:#aa205c;fill-rule:nonzero;"/></g><g id="make-it-more-appealing-colorful-and-still-easily-v.svg"></g><defs><linearGradient id="_Linear1" x1="0" y1="0" x2="1" y2="0" gradientUnits="userSpaceOnUse" gradientTransform="matrix(75.7679,-83.6668,83.6668,75.7679,457.363,646.665)"><stop offset="0" style="stop-color:#89ce4f;stop-opacity:1"/><stop offset="1" style="stop-color:#cdeb96;stop-opacity:1"/></linearGradient><linearGradient id="_Linear2" x1="0" y1="0" x2="1" y2="0" gradientUnits="userSpaceOnUse" gradientTransform="matrix(-175.253,192.238,-192.238,-175.253,546.79,740.749)"><stop offset="0" style="stop-color:#58c74d;stop-opacity:1"/><stop offset="1" style="stop-color:#009158;stop-opacity:1"/></linearGradient><linearGradient id="_Linear3" x1="0" y1="0" x2="1" y2="0" gradientUnits="userSpaceOnUse" gradientTransform="matrix(29.0517,-121.221,121.221,29.0517,476.015,923.67)"><stop offset="0" style="stop-color:#006a42;stop-opacity:1"/><stop offset="1" style="stop-color:#148b4b;stop-opacity:1"/></linearGradient><linearGradient id="_Linear4" x1="0" y1="0" x2="1" y2="0" gradientUnits="userSpaceOnUse" gradientTransform="matrix(-137.668,126.001,-126.001,-137.668,532.216,451.781)"><stop offset="0" style="stop-color:#b0e53c;stop-opacity:1"/><stop offset="1" style="stop-color:#61c64f;stop-opacity:1"/></linearGradient><linearGradient id="_Linear5" x1="0" y1="0" x2="1" y2="0" gradientUnits="userSpaceOnUse" gradientTransform="matrix(96.3069,-70.3985,70.3985,96.3069,554.403,553.77)"><stop offset="0" style="stop-color:#a8df4c;stop-opacity:1"/><stop offset="1" style="stop-color:#e1f9b9;stop-opacity:1"/></linearGradient><linearGradient id="_Linear6" x1="0" y1="0" x2="1" y2="0" gradientUnits="userSpaceOnUse" gradientTransform="matrix(138.138,114.974,-114.974,138.138,364.065,249.086)"><stop offset="0" style="stop-color:#1297a7;stop-opacity:1"/><stop offset="1" style="stop-color:#5ae4e9;stop-opacity:1"/></linearGradient><linearGradient id="_Linear7" x1="0" y1="0" x2="1" y2="0" gradientUnits="userSpaceOnUse" gradientTransform="matrix(124.122,9.16125,-9.16125,124.122,194.254,503.789)"><stop offset="0" style="stop-color:#4d82ba;stop-opacity:1"/><stop offset="1" style="stop-color:#68c8db;stop-opacity:1"/></linearGradient><linearGradient id="_Linear8" x1="0" y1="0" x2="1" y2="0" gradientUnits="userSpaceOnUse" gradientTransform="matrix(23.3347,75.6356,-75.6356,23.3347,352.679,390.618)"><stop offset="0" style="stop-color:#4cc8d2;stop-opacity:1"/><stop offset="1" style="stop-color:#7ff6f6;stop-opacity:1"/></linearGradient><linearGradient id="_Linear9" x1="0" y1="0" x2="1" y2="0" gradientUnits="userSpaceOnUse" gradientTransform="matrix(242.137,-74.7884,74.7884,242.137,141.653,607.192)"><stop offset="0" style="stop-color:#1c2686;stop-opacity:1"/><stop offset="1" style="stop-color:#1c9bb9;stop-opacity:1"/></linearGradient><linearGradient id="_Linear10" x1="0" y1="0" x2="1" y2="0" gradientUnits="userSpaceOnUse" gradientTransform="matrix(46.2423,368.151,-368.151,46.2423,709.968,402.214)"><stop offset="0" style="stop-color:#f95f29;stop-opacity:1"/><stop offset="1" style="stop-color:#b30f4e;stop-opacity:1"/></linearGradient><linearGradient id="_Linear11" x1="0" y1="0" x2="1" y2="0" gradientUnits="userSpaceOnUse" gradientTransform="matrix(-72.2381,72.2708,-72.2708,-72.2381,849.548,360.762)"><stop offset="0" style="stop-color:#fdab1e;stop-opacity:1"/><stop offset="1" style="stop-color:#f3762c;stop-opacity:1"/></linearGradient><linearGradient id="_Linear12" x1="0" y1="0" x2="1" y2="0" gradientUnits="userSpaceOnUse" gradientTransform="matrix(74.3627,-62.0997,62.0997,74.3627,778.217,309.273)"><stop offset="0" style="stop-color:#fdc155;stop-opacity:1"/><stop offset="1" style="stop-color:#fdebc5;stop-opacity:1"/></linearGradient><linearGradient id="_Linear13" x1="0" y1="0" x2="1" y2="0" gradientUnits="userSpaceOnUse" gradientTransform="matrix(32.1837,60.7493,-60.7493,32.1837,349.476,361.419)"><stop offset="0" style="stop-color:#1c8fb7;stop-opacity:1"/><stop offset="1" style="stop-color:#22e7e3;stop-opacity:1"/></linearGradient><linearGradient id="_Linear14" x1="0" y1="0" x2="1" y2="0" gradientUnits="userSpaceOnUse" gradientTransform="matrix(-63.8265,72.8846,-72.8846,-63.8265,443.178,581.837)"><stop offset="0" style="stop-color:#92d83d;stop-opacity:1"/><stop offset="1" style="stop-color:#4bbb53;stop-opacity:1"/></linearGradient><linearGradient id="_Linear15" x1="0" y1="0" x2="1" y2="0" gradientUnits="userSpaceOnUse" gradientTransform="matrix(-43.8575,58.9255,-58.9255,-43.8575,826.235,177.64)"><stop offset="0" style="stop-color:#dd9f3b;stop-opacity:1"/><stop offset="1" style="stop-color:#8d6e4b;stop-opacity:1"/></linearGradient><linearGradient id="_Linear16" x1="0" y1="0" x2="1" y2="0" gradientUnits="userSpaceOnUse" gradientTransform="matrix(33.1019,-36.4015,36.4015,33.1019,834.953,233.207)"><stop offset="0" style="stop-color:#fceac1;stop-opacity:1"/><stop offset="1" style="stop-color:#feffff;stop-opacity:1"/></linearGradient><linearGradient id="_Linear17" x1="0" y1="0" x2="1" y2="0" gradientUnits="userSpaceOnUse" gradientTransform="matrix(-12.4912,27.2541,-27.2541,-12.4912,873.175,175.659)"><stop offset="0" style="stop-color:#ffb921;stop-opacity:1"/><stop offset="1" style="stop-color:#e39b35;stop-opacity:1"/></linearGradient><linearGradient id="_Linear18" x1="0" y1="0" x2="1" y2="0" gradientUnits="userSpaceOnUse" gradientTransform="matrix(-54.7065,64.8175,-64.8175,-54.7065,891.154,222.254)"><stop offset="0" style="stop-color:#db9d3b;stop-opacity:1"/><stop offset="1" style="stop-color:#8d6a4c;stop-opacity:1"/></linearGradient></defs></svg>